  0
SECTION
  2
HEADER
  9
$ACADVER
  1
AC1009
  9
$DWGCODEPAGE
  3
ansi_1252
  9
$INSBASE
 10
0.0
 20
0.0
 30
0.0
  9
$EXTMIN
 10
-331.7381389836423
 20
-558.7578434762943
 30
-0.0000000000001611
  9
$EXTMAX
 10
496.3874960542749
 20
459.9999999999999
 30
0.0000000000002321
  9
$LIMMIN
 10
0.0
 20
0.0
  9
$LIMMAX
 10
12.0
 20
9.0
  9
$ORTHOMODE
 70
     0
  9
$REGENMODE
 70
     1
  9
$FILLMODE
 70
     1
  9
$QTEXTMODE
 70
     0
  9
$MIRRTEXT
 70
     1
  9
$DRAGMODE
 70
     2
  9
$LTSCALE
 40
1.0
  9
$OSMODE
 70
    37
  9
$ATTMODE
 70
     1
  9
$TEXTSIZE
 40
0.2
  9
$TRACEWID
 40
0.05
  9
$TEXTSTYLE
  7
STANDARD
  9
$CLAYER
  8
DEFAULT
  9
$CELTYPE
  6
BYLAYER
  9
$CECOLOR
 62
   256
  9
$DIMSCALE
 40
1.0
  9
$DIMASZ
 40
0.18
  9
$DIMEXO
 40
0.0625
  9
$DIMDLI
 40
0.38
  9
$DIMRND
 40
0.0
  9
$DIMDLE
 40
0.0
  9
$DIMEXE
 40
0.18
  9
$DIMTP
 40
0.0
  9
$DIMTM
 40
0.0
  9
$DIMTXT
 40
0.18
  9
$DIMCEN
 40
0.09
  9
$DIMTSZ
 40
0.0
  9
$DIMTOL
 70
     0
  9
$DIMLIM
 70
     0
  9
$DIMTIH
 70
     1
  9
$DIMTOH
 70
     1
  9
$DIMSE1
 70
     0
  9
$DIMSE2
 70
     0
  9
$DIMTAD
 70
     0
  9
$DIMZIN
 70
     0
  9
$DIMBLK
  1

  9
$DIMASO
 70
     1
  9
$DIMSHO
 70
     1
  9
$DIMPOST
  1

  9
$DIMAPOST
  1

  9
$DIMALT
 70
     0
  9
$DIMALTD
 70
     2
  9
$DIMALTF
 40
25.4
  9
$DIMLFAC
 40
1.0
  9
$DIMTOFL
 70
     0
  9
$DIMTVP
 40
0.0
  9
$DIMTIX
 70
     0
  9
$DIMSOXD
 70
     0
  9
$DIMSAH
 70
     0
  9
$DIMBLK1
  1

  9
$DIMBLK2
  1

  9
$DIMSTYLE
  2
STANDARD
  9
$DIMCLRD
 70
     0
  9
$DIMCLRE
 70
     0
  9
$DIMCLRT
 70
     0
  9
$DIMTFAC
 40
1.0
  9
$DIMGAP
 40
0.09
  9
$LUNITS
 70
     2
  9
$LUPREC
 70
     3
  9
$SKETCHINC
 40
0.1
  9
$FILLETRAD
 40
0.5
  9
$AUNITS
 70
     0
  9
$AUPREC
 70
     0
  9
$MENU
  1
.
  9
$ELEVATION
 40
0.0
  9
$PELEVATION
 40
0.0
  9
$THICKNESS
 40
0.0
  9
$LIMCHECK
 70
     0
  9
$CHAMFERA
 40
0.0
  9
$CHAMFERB
 40
0.0
  9
$SKPOLY
 70
     0
  9
$TDCREATE
 40
2457837.447444317
  9
$TDUPDATE
 40
2457837.447560405
  9
$TDINDWG
 40
0.0000000116
  9
$TDUSRTIMER
 40
0.0000000116
  9
$USRTIMER
 70
     1
  9
$ANGBASE
 50
0.0
  9
$ANGDIR
 70
     0
  9
$PDMODE
 70
     0
  9
$PDSIZE
 40
0.0
  9
$PLINEWID
 40
0.0
  9
$COORDS
 70
     1
  9
$SPLFRAME
 70
     0
  9
$SPLINETYPE
 70
     6
  9
$SPLINESEGS
 70
     8
  9
$ATTDIA
 70
     0
  9
$ATTREQ
 70
     1
  9
$HANDLING
 70
     1
  9
$HANDSEED
  5
392
  9
$SURFTAB1
 70
     6
  9
$SURFTAB2
 70
     6
  9
$SURFTYPE
 70
     6
  9
$SURFU
 70
     6
  9
$SURFV
 70
     6
  9
$UCSNAME
  2

  9
$UCSORG
 10
0.0
 20
0.0
 30
0.0
  9
$UCSXDIR
 10
1.0
 20
0.0
 30
0.0
  9
$UCSYDIR
 10
0.0
 20
1.0
 30
0.0
  9
$PUCSNAME
  2

  9
$PUCSORG
 10
0.0
 20
0.0
 30
0.0
  9
$PUCSXDIR
 10
1.0
 20
0.0
 30
0.0
  9
$PUCSYDIR
 10
0.0
 20
1.0
 30
0.0
  9
$USERI1
 70
     0
  9
$USERI2
 70
     0
  9
$USERI3
 70
     0
  9
$USERI4
 70
     0
  9
$USERI5
 70
     0
  9
$USERR1
 40
0.0
  9
$USERR2
 40
0.0
  9
$USERR3
 40
0.0
  9
$USERR4
 40
0.0
  9
$USERR5
 40
0.0
  9
$WORLDVIEW
 70
     1
  9
$SHADEDGE
 70
     3
  9
$SHADEDIF
 70
    70
  9
$TILEMODE
 70
     1
  9
$MAXACTVP
 70
    64
  9
$PLIMCHECK
 70
     0
  9
$PEXTMIN
 10
1.000000000000000E+20
 20
1.000000000000000E+20
 30
1.000000000000000E+20
  9
$PEXTMAX
 10
-1.000000000000000E+20
 20
-1.000000000000000E+20
 30
-1.000000000000000E+20
  9
$PLIMMIN
 10
0.0
 20
0.0
  9
$PLIMMAX
 10
12.0
 20
9.0
  9
$UNITMODE
 70
     0
  9
$VISRETAIN
 70
     1
  9
$PLINEGEN
 70
     0
  9
$PSLTSCALE
 70
     1
  0
ENDSEC
  0
SECTION
  2
TABLES
  0
TABLE
  2
VPORT
 70
     1
  0
VPORT
  2
*ACTIVE
 70
     0
 10
0.0
 20
0.0
 11
1.0
 21
1.0
 12
82.32467853531631
 22
-49.3789217381472
 13
0.0
 23
0.0
 14
0.5
 24
0.5
 15
0.5
 25
0.5
 16
0.0
 26
0.0
 36
1.0
 17
0.0
 27
0.0
 37
0.0
 40
1039.13300034582
 41
0.8128778004909535
 42
50.0
 43
0.0
 44
0.0
 50
0.0
 51
0.0
 71
     0
 72
   100
 73
     1
 74
     3
 75
     0
 76
     0
 77
     0
 78
     0
  0
ENDTAB
  0
TABLE
  2
LTYPE
 70
     2
  0
LTYPE
  2
CONTINUOUS
 70
     0
  3
Solid line
 72
    65
 73
     0
 40
0.0
  0
LTYPE
  2
DASHED
 70
     0
  3

 72
    65
 73
     2
 40
10.0
 49
5.0
 49
-5.0
  0
ENDTAB
  0
TABLE
  2
LAYER
 70
    11
  0
LAYER
  2
0
 70
     0
 62
     7
  6
CONTINUOUS
  0
LAYER
  2
IN
 70
     0
 62
     1
  6
CONTINUOUS
  0
LAYER
  2
2_MM_HOLES
 70
     0
 62
     6
  6
CONTINUOUS
  0
LAYER
  2
6_MM_HOLES
 70
     0
 62
    96
  6
CONTINUOUS
  0
LAYER
  2
CORNER_HOLES
 70
     0
 62
     7
  6
CONTINUOUS
  0
LAYER
  2
OUT
 70
     0
 62
   172
  6
CONTINUOUS
  0
LAYER
  2
CONSTRUCTION
 70
     0
 62
   251
  6
DASHED
  0
LAYER
  2
DEFAULT
 70
     0
 62
     7
  6
CONTINUOUS
  0
LAYER
  2
8_MM_HOLES
 70
     0
 62
     2
  6
CONTINUOUS
  0
LAYER
  2
TASCHE
 70
     0
 62
     3
  6
CONTINUOUS
  0
LAYER
  2
DRAWING
 70
     0
 62
     4
  6
CONTINUOUS
  0
ENDTAB
  0
TABLE
  2
STYLE
 70
     2
  0
STYLE
  2
STANDARD
 70
     0
 40
0.0
 41
1.0
 50
0.0
 71
     0
 42
0.2
  3
txt
  4

  0
STYLE
  2
ARIAL
 70
     0
 40
0.0
 41
1.0
 50
0.0
 71
     0
 42
0.2
  3
arial.ttf
  4

  0
ENDTAB
  0
TABLE
  2
VIEW
 70
     0
  0
ENDTAB
  0
TABLE
  2
UCS
 70
     0
  0
ENDTAB
  0
TABLE
  2
APPID
 70
     1
  0
APPID
  2
ACAD
 70
     0
  0
ENDTAB
  0
TABLE
  2
DIMSTYLE
 70
     2
  0
DIMSTYLE
  2
STANDARD
 70
     0
  3

  4

  5

  6

  7

 40
1.0
 41
0.18
 42
0.0625
 43
0.38
 44
0.18
 45
0.0
 46
0.0
 47
0.0
 48
0.0
140
0.18
141
0.09
142
0.0
143
25.4
144
1.0
145
0.0
146
1.0
147
0.09
 71
     0
 72
     0
 73
     1
 74
     1
 75
     0
 76
     0
 77
     0
 78
     0
170
     0
171
     2
172
     0
173
     0
174
     0
175
     0
176
     0
177
     0
178
     0
  0
DIMSTYLE
  2
STANDARD_01
 70
     0
  3

  4

  5

  6

  7

 40
1.0
 41
0.18
 42
0.0625
 43
0.38
 44
0.18
 45
0.0
 46
0.0
 47
0.0
 48
0.0
140
4.0
141
0.2
142
0.0
143
25.4
144
1.0
145
0.0
146
1.0
147
0.1
 71
     0
 72
     0
 73
     1
 74
     1
 75
     0
 76
     0
 77
     0
 78
     1
170
     0
171
     2
172
     1
173
     0
174
     1
175
     0
176
     0
177
     0
178
     0
  0
ENDTAB
  0
ENDSEC
  0
SECTION
  2
BLOCKS
  0
BLOCK
  8
0
  2
$MODEL_SPACE
 70
     0
 10
0.0
 20
0.0
 30
0.0
  3
$MODEL_SPACE
  1

  0
ENDBLK
  5
21
  8
0
  0
BLOCK
 67
     1
  8
0
  2
$PAPER_SPACE
 70
     0
 10
0.0
 20
0.0
 30
0.0
  3
$PAPER_SPACE
  1

  0
ENDBLK
  5
1D
 67
     1
  8
0
  0
BLOCK
  8
0
  2
*X1
 70
     1
 10
0.0
 20
0.0
 30
0.0
  3
*X1
  1

  0
SOLID
  5
381
  8
DEFAULT
 10
173.106750402851
 20
-294.0600383986385
 30
0.0000000000001025
 11
174.3126252594834
 21
-295.6900620000789
 31
0.0000000000001025
 12
172.643276524364
 22
-294.5392423305971
 32
0.0000000000001025
 13
172.643276524364
 23
-294.5392423305971
 33
0.0000000000001025
210
0.0
220
0.0
230
-1.0
  0
LINE
  5
382
  8
DEFAULT
 10
-172.8750134636075
 20
-294.2996403646178
 30
-0.0000000000001025
 11
-159.8623244081001
 21
-281.7140978348409
 31
-0.0000000000001025
  0
LINE
  5
383
  8
DEFAULT
 10
-159.8623244081001
 20
-281.7140978348409
 30
-0.0000000000001025
 11
-133.7112549458539
 21
-281.7140978348409
 31
-0.0000000000001025
  0
ENDBLK
  5
38D
  8
0
  0
BLOCK
  8
0
  2
*X2
 70
     1
 10
0.0
 20
0.0
 30
0.0
  3
*X2
  1

  0
SOLID
  5
385
  8
DEFAULT
 10
173.1067504028514
 20
-179.3887737347222
 30
-0.0000000000000244
 11
174.3126252594839
 21
-181.0187973361627
 31
-0.0000000000000244
 12
172.6432765243644
 22
-179.8679776666809
 32
-0.0000000000000244
 13
172.6432765243644
 23
-179.8679776666809
 33
-0.0000000000000244
210
0.0
220
0.0
230
-1.0
  0
LINE
  5
386
  8
DEFAULT
 10
-172.8750134636079
 20
-179.6283757007016
 30
0.0000000000000244
 11
-159.8623244081005
 21
-167.0428331709247
 31
0.0000000000000244
  0
LINE
  5
387
  8
DEFAULT
 10
-159.8623244081005
 20
-167.0428331709247
 30
0.0000000000000244
 11
-133.2251748666357
 21
-167.0428331709247
 31
0.0000000000000244
  0
ENDBLK
  5
38F
  8
0
  0
BLOCK
  8
0
  2
*X3
 70
     1
 10
0.0
 20
0.0
 30
0.0
  3
*X3
  1

  0
SOLID
  5
389
  8
DEFAULT
 10
171.9034233747253
 20
183.8123087606313
 30
-0.0000000000000878
 11
172.8126252594839
 21
181.9999999999995
 31
-0.0000000000000878
 12
171.3647936082912
 22
183.4194698379727
 32
-0.0000000000000878
 13
171.3647936082912
 23
183.4194698379727
 33
-0.0000000000000878
210
0.0
220
0.0
230
-1.0
  0
LINE
  5
38A
  8
DEFAULT
 10
-171.6341084915083
 20
183.615889299302
 30
0.0000000000000878
 11
-158.0649488210999
 21
202.2208514922488
 31
0.0000000000000878
  0
LINE
  5
38B
  8
DEFAULT
 10
-158.0649488210999
 20
202.2208514922488
 30
0.0000000000000878
 11
-153.8635431548473
 21
202.2208514922488
 31
0.0000000000000878
  0
ENDBLK
  5
391
  8
0
  0
ENDSEC
  0
SECTION
  2
ENTITIES
  0
CIRCLE
  5
6F
  8
IN
 10
-260.8126252594843
 20
312.9999999999995
 30
0.0000000000001152
 40
16.0
  0
POINT
  5
71
  8
2_MM_HOLES
 10
-220.8126252594839
 20
-81.00000000000091
 30
0.0000000000000657
  0
POINT
  5
72
  8
2_MM_HOLES
 10
-220.8126252594839
 20
-69.00000000000091
 30
0.0000000000000657
  0
POINT
  5
73
  8
2_MM_HOLES
 10
-172.8126252594839
 20
-81.00000000000091
 30
0.0000000000000657
  0
POINT
  5
74
  8
2_MM_HOLES
 10
-172.8126252594839
 20
-69.00000000000091
 30
0.0000000000000657
  0
CIRCLE
  5
75
  8
IN
 10
-174.5387616521075
 20
101.2261363926232
 30
0.0000000000000657
 40
5.5
  0
CIRCLE
  5
76
  8
IN
 10
-219.0864888668602
 20
101.2261363926232
 30
0.0000000000000657
 40
5.500000000000227
  0
CIRCLE
  5
77
  8
IN
 10
-174.5387616521075
 20
145.7738636073755
 30
0.0000000000000657
 40
5.5
  0
CIRCLE
  5
78
  8
IN
 10
-219.0864888668602
 20
145.7738636073755
 30
0.0000000000000657
 40
5.500000000000227
  0
POINT
  5
79
  8
2_MM_HOLES
 10
-220.8126252594839
 20
64.99999999999909
 30
0.0000000000000882
  0
POINT
  5
7A
  8
2_MM_HOLES
 10
-220.8126252594839
 20
52.99999999999909
 30
0.0000000000000882
  0
POINT
  5
7B
  8
2_MM_HOLES
 10
-172.8126252594839
 20
52.99999999999909
 30
0.0000000000000878
  0
POINT
  5
7C
  8
2_MM_HOLES
 10
-172.8126252594839
 20
64.99999999999864
 30
0.0000000000000878
  0
POINT
  5
7E
  8
6_MM_HOLES
 10
-114.8126252594848
 20
169.4999999999995
 30
0.0000000000000657
  0
POINT
  5
7F
  8
6_MM_HOLES
 10
-114.8126252594848
 20
89.49999999999955
 30
0.0000000000000657
  0
POINT
  5
80
  8
6_MM_HOLES
 10
-278.8126252594839
 20
89.49999999999955
 30
0.0000000000000657
  0
POINT
  5
81
  8
6_MM_HOLES
 10
-278.8126252594839
 20
169.4999999999995
 30
0.0000000000000657
  0
POLYLINE
  5
82
  8
IN
 66
     1
 10
0.0
 20
0.0
 30
0.0000000000001152
 70
     1
  0
VERTEX
  5
83
  8
IN
 10
-238.8126252594852
 20
404.0000000000005
 30
0.0000000000001152
  0
VERTEX
  5
84
  8
IN
 10
-174.8126252594839
 20
404.0000000000005
 30
0.0000000000001152
  0
VERTEX
  5
85
  8
IN
 10
-174.8126252594839
 20
444.0000000000005
 30
0.0000000000001152
  0
VERTEX
  5
86
  8
IN
 10
-238.8126252594852
 20
444.0000000000005
 30
0.0000000000001152
  0
SEQEND
  5
87
  8
IN
  0
POINT
  5
88
  8
2_MM_HOLES
 10
-172.8126252594843
 20
382.0
 30
0.0000000000001312
  0
POINT
  5
89
  8
2_MM_HOLES
 10
-220.8126252594843
 20
382.0
 30
0.0000000000001316
  0
POINT
  5
8A
  8
2_MM_HOLES
 10
-220.8126252594839
 20
181.9999999999995
 30
0.0000000000000882
  0
POINT
  5
8B
  8
2_MM_HOLES
 10
-172.8126252594839
 20
181.9999999999995
 30
0.0000000000000878
  0
POLYLINE
  5
8C
  8
IN
 66
     1
 10
0.0
 20
0.0
 30
0.0000000000001071
  0
VERTEX
  5
8D
  8
IN
 10
-160.8126252594843
 20
168.0000000000004
 30
0.0000000000001071
  0
VERTEX
  5
8E
  8
IN
 10
-160.812625259482
 20
188.0000000000009
 30
0.0000000000001071
  0
VERTEX
  5
8F
  8
IN
 10
-148.812625259482
 20
188.0000000000009
 30
0.0000000000001071
  0
VERTEX
  5
90
  8
IN
 10
-148.8126252594816
 20
168.0000000000009
 30
0.0000000000001071
  0
VERTEX
  5
91
  8
IN
 10
-160.812625259482
 20
168.0000000000004
 30
0.0000000000001071
  0
VERTEX
  5
92
  8
IN
 10
-160.812625259482
 20
188.0000000000009
 30
0.0000000000001071
  0
SEQEND
  5
93
  8
IN
  0
POLYLINE
  5
94
  8
IN
 66
     1
 10
0.0
 20
0.0
 30
0.0000000000001063
 70
     1
  0
VERTEX
  5
95
  8
IN
 10
-232.8126252594848
 20
167.9999999999999
 30
0.0000000000001063
  0
VERTEX
  5
96
  8
IN
 10
-244.8126252594852
 20
167.9999999999999
 30
0.0000000000001063
  0
VERTEX
  5
97
  8
IN
 10
-244.8126252594852
 20
187.9999999999999
 30
0.0000000000001063
  0
VERTEX
  5
98
  8
IN
 10
-232.8126252594852
 20
187.9999999999999
 30
0.0000000000001063
  0
SEQEND
  5
99
  8
IN
  0
POLYLINE
  5
9A
  8
IN
 66
     1
 10
0.0
 20
0.0
 30
0.0000000000000686
 70
     1
  0
VERTEX
  5
9B
  8
IN
 10
-148.8126252594848
 20
0.0000000000009095
 30
0.0000000000000686
  0
VERTEX
  5
9C
  8
IN
 10
-148.8126252594848
 20
80.00000000000091
 30
0.0000000000000686
  0
VERTEX
  5
9D
  8
IN
 10
-160.812625259483
 20
80.00000000000091
 30
0.0000000000000686
  0
VERTEX
  5
9E
  8
IN
 10
-160.8126252594834
 20
0.0000000000009095
 30
0.0000000000000686
  0
SEQEND
  5
9F
  8
IN
  0
POLYLINE
  5
A0
  8
IN
 66
     1
 10
0.0
 20
0.0
 30
0.0000000000000657
 70
     1
  0
VERTEX
  5
A1
  8
IN
 10
-232.8126252594848
 20
80.00000000000091
 30
0.0000000000000657
  0
VERTEX
  5
A2
  8
IN
 10
-232.8126252594843
 20
0.0000000000009095
 30
0.0000000000000657
  0
VERTEX
  5
A3
  8
IN
 10
-244.812625259483
 20
0.0000000000009095
 30
0.0000000000000657
  0
VERTEX
  5
A4
  8
IN
 10
-244.812625259483
 20
80.00000000000091
 30
0.0000000000000657
  0
SEQEND
  5
A5
  8
IN
  0
POINT
  5
A7
  8
CORNER_HOLES
 10
-244.8126252594852
 20
187.9999999999999
 30
0.0000000000001137
  0
POINT
  5
A8
  8
CORNER_HOLES
 10
-244.8126252594852
 20
167.9999999999999
 30
0.0000000000000976
  0
POINT
  5
A9
  8
CORNER_HOLES
 10
-232.8126252594848
 20
167.9999999999999
 30
0.0000000000001063
  0
POINT
  5
AA
  8
CORNER_HOLES
 10
-232.8126252594852
 20
187.9999999999999
 30
0.0000000000001118
  0
POINT
  5
AB
  8
CORNER_HOLES
 10
-160.812625259482
 20
188.0000000000009
 30
0.0000000000001184
  0
POINT
  5
AC
  8
CORNER_HOLES
 10
-160.8126252594843
 20
168.0000000000004
 30
0.0000000000001071
  0
POINT
  5
AD
  8
CORNER_HOLES
 10
-148.8126252594816
 20
168.0000000000009
 30
0.0000000000001096
  0
POINT
  5
AE
  8
CORNER_HOLES
 10
-148.812625259482
 20
188.0000000000009
 30
0.000000000000115
  0
POINT
  5
AF
  8
CORNER_HOLES
 10
-244.812625259483
 20
80.00000000000091
 30
0.0000000000000657
  0
POINT
  5
B0
  8
CORNER_HOLES
 10
-232.8126252594848
 20
80.00000000000091
 30
0.0000000000000657
  0
POINT
  5
B1
  8
CORNER_HOLES
 10
-232.8126252594843
 20
0.0000000000009095
 30
0.0000000000000657
  0
POINT
  5
B2
  8
CORNER_HOLES
 10
-244.812625259483
 20
0.0000000000009095
 30
0.0000000000000686
  0
POINT
  5
B3
  8
CORNER_HOLES
 10
-160.8126252594834
 20
0.0000000000009095
 30
0.0000000000000657
  0
POINT
  5
B4
  8
CORNER_HOLES
 10
-148.8126252594848
 20
0.0000000000009095
 30
0.0000000000000686
  0
POINT
  5
B5
  8
CORNER_HOLES
 10
-148.8126252594848
 20
80.00000000000091
 30
0.0000000000000657
  0
POINT
  5
B6
  8
CORNER_HOLES
 10
-160.812625259483
 20
80.00000000000091
 30
0.0000000000000657
  0
POINT
  5
B7
  8
CORNER_HOLES
 10
-73.81262525948114
 20
409.0
 30
0.0000000000002321
  0
POINT
  5
B8
  8
CORNER_HOLES
 10
-73.81262525948114
 20
439.0
 30
0.0000000000002191
  0
POINT
  5
B9
  8
2_MM_HOLES
 10
-67.81262525948114
 20
449.4999999999995
 30
0.0000000000001392
  0
POINT
  5
BA
  8
2_MM_HOLES
 10
-67.81262525948114
 20
398.5
 30
0.0000000000001447
  0
POINT
  5
BB
  8
CORNER_HOLES
 10
-73.81262525948114
 20
208.9999999999995
 30
0.0000000000002321
  0
POINT
  5
BC
  8
CORNER_HOLES
 10
-73.81262525948114
 20
238.9999999999995
 30
0.0000000000002191
  0
POINT
  5
BD
  8
2_MM_HOLES
 10
-67.81262525948114
 20
249.4999999999995
 30
0.0000000000001392
  0
POINT
  5
BE
  8
2_MM_HOLES
 10
-67.81262525948114
 20
198.5
 30
0.0000000000001448
  0
POLYLINE
  5
C0
  8
OUT
 66
     1
 10
0.0
 20
0.0
 30
0.0000000000001193
 70
     1
  0
VERTEX
  5
C1
  8
OUT
 10
-61.81262525948114
 20
188.0000000000005
 30
0.0000000000001193
  0
VERTEX
  5
C2
  8
OUT
 10
-61.81262525948114
 20
208.9999999999995
 30
0.0000000000001193
  0
VERTEX
  5
C3
  8
OUT
 10
-73.81262525948114
 20
208.9999999999995
 30
0.0000000000001193
  0
VERTEX
  5
C4
  8
OUT
 10
-73.81262525948114
 20
238.9999999999995
 30
0.0000000000001193
  0
VERTEX
  5
C5
  8
OUT
 10
-61.81262525948114
 20
239.0
 30
0.0000000000001193
  0
VERTEX
  5
C6
  8
OUT
 10
-61.81262525948114
 20
259.9999999999995
 30
0.0000000000001193
  0
VERTEX
  5
C7
  8
OUT
 10
-232.8126252594839
 20
259.9999999999941
 30
0.0000000000001193
  0
VERTEX
  5
C8
  8
OUT
 10
-232.8126252594848
 20
339.9999999999973
 30
0.0000000000001193
  0
VERTEX
  5
C9
  8
OUT
 10
-288.8126252594839
 20
339.9999999999995
 30
0.0000000000001193
  0
VERTEX
  5
CA
  8
OUT
 10
-288.8126252594839
 20
79.49999999999955
 30
0.0000000000001193
  0
VERTEX
  5
CB
  8
OUT
 10
-232.8126252594839
 20
-63.00000000000091
 30
0.0000000000001193
  0
VERTEX
  5
CC
  8
OUT
 10
-232.8126252594839
 20
-87.00000000000091
 30
0.0000000000001193
  0
VERTEX
  5
CD
  8
OUT
 10
-160.8126252594839
 20
-87.00000000000091
 30
0.0000000000001193
  0
VERTEX
  5
CE
  8
OUT
 10
-160.8126252594839
 20
-63.00000000000091
 30
0.0000000000001193
  0
VERTEX
  5
CF
  8
OUT
 10
-104.8126252594839
 20
79.49999999999955
 30
0.0000000000001193
  0
VERTEX
  5
D0
  8
OUT
 10
-104.8126252594843
 20
187.9999999999999
 30
0.0000000000001193
  0
SEQEND
  5
D1
  8
OUT
  0
POLYLINE
  5
D2
  8
OUT
 66
     1
 10
0.0
 20
0.0
 30
0.0000000000001168
 70
     1
  0
VERTEX
  5
D3
  8
OUT
 10
-61.81262525948114
 20
409.0
 30
0.0000000000001168
  0
VERTEX
  5
D4
  8
OUT
 10
-61.81262525948114
 20
388.0000000000004
 30
0.0000000000001168
  0
VERTEX
  5
D5
  8
OUT
 10
-148.812625259482
 20
388.0000000000009
 30
0.0000000000001168
  0
VERTEX
  5
D6
  8
OUT
 10
-148.812625259482
 20
375.9999999999995
 30
0.0000000000001168
  0
VERTEX
  5
D7
  8
OUT
 10
-288.8126252594839
 20
375.9999999999995
 30
0.0000000000001168
  0
VERTEX
  5
D8
  8
OUT
 10
-288.8126252594839
 20
459.9999999999941
 30
0.0000000000001168
  0
VERTEX
  5
D9
  8
OUT
 10
-61.81262525948102
 20
459.9999999999999
 30
0.0000000000001168
  0
VERTEX
  5
DA
  8
OUT
 10
-61.81262525948114
 20
439.0
 30
0.0000000000001168
  0
VERTEX
  5
DB
  8
OUT
 10
-73.81262525948114
 20
439.0
 30
0.0000000000001168
  0
VERTEX
  5
DC
  8
OUT
 10
-73.81262525948114
 20
409.0
 30
0.0000000000001168
  0
SEQEND
  5
DD
  8
OUT
  0
LINE
  5
E0
  8
CONSTRUCTION
 10
-288.8126252594839
 20
339.9999999999995
 30
0.0000000000001104
 11
-288.8126252594839
 21
375.9999999999995
 31
0.0000000000000805
  0
LINE
  5
E1
  8
CONSTRUCTION
 10
-61.81262525948114
 20
260.0000000000001
 30
0.0000000000001161
 11
-61.81262525948114
 21
388.0000000000004
 31
0.000000000000113
  0
LINE
  5
E2
  8
CONSTRUCTION
 10
-232.8126252594839
 20
-87.00000000000091
 30
0.0000000000000657
 11
-232.8126252594839
 21
-107.2687973361604
 31
0.0
  0
POLYLINE
  5
E4
  8
DEFAULT
  6
DASHED
 66
     1
 10
0.0
 20
0.0
 30
0.0000000000000449
  0
VERTEX
  5
E5
  8
DEFAULT
  6
DASHED
 10
-174.3126252594839
 20
-185.5187973361627
 30
0.0000000000000449
  0
VERTEX
  5
E6
  8
DEFAULT
  6
DASHED
 10
-174.3126252594839
 20
-176.5187973361627
 30
0.0000000000000449
  0
VERTEX
  5
E7
  8
DEFAULT
  6
DASHED
 10
-219.3126252594839
 20
-176.5187973361618
 30
0.0000000000000449
  0
VERTEX
  5
E8
  8
DEFAULT
  6
DASHED
 10
-219.3126252594839
 20
-185.5187973361618
 30
0.0000000000000449
  0
SEQEND
  5
E9
  8
DEFAULT
  6
DASHED
  0
CIRCLE
  5
EA
  8
IN
 10
-196.8126252594839
 20
-147.2687973361618
 30
-0.000000000000009
 40
5.349999999999909
  0
POLYLINE
  5
EB
  8
OUT
 66
     1
 10
0.0
 20
0.0
 30
-0.0000000000000219
 70
     1
  0
VERTEX
  5
EC
  8
OUT
 10
-160.8126252594843
 20
-162.2687973361604
 30
-0.0000000000000219
  0
VERTEX
  5
ED
  8
OUT
 10
-160.8126252594843
 20
-203.2687973361536
 30
-0.0000000000000219
  0
VERTEX
  5
EE
  8
OUT
 10
-174.3126252594839
 20
-203.2687973361536
 30
-0.0000000000000219
  0
VERTEX
  5
EF
  8
OUT
 10
-174.3126252594839
 20
-185.5187973361627
 30
-0.0000000000000219
  0
VERTEX
  5
F0
  8
OUT
 10
-219.3126252594839
 20
-185.5187973361618
 30
-0.0000000000000219
  0
VERTEX
  5
F1
  8
OUT
 10
-219.3126252594839
 20
-203.2687973361536
 30
-0.0000000000000219
  0
VERTEX
  5
F2
  8
OUT
 10
-232.812625259483
 20
-203.2687973361536
 30
-0.0000000000000219
  0
VERTEX
  5
F3
  8
OUT
 10
-232.812625259483
 20
-162.2687973361604
 30
-0.0000000000000219
  0
VERTEX
  5
F4
  8
OUT
 10
-244.8126252594825
 20
-162.2687973361608
 30
-0.0000000000000219
  0
VERTEX
  5
F5
  8
OUT
 10
-244.8126252594839
 20
-132.2687973361613
 30
-0.0000000000000219
  0
VERTEX
  5
F6
  8
OUT
 10
-232.8126252594839
 20
-132.2687973361604
 30
-0.0000000000000219
  0
VERTEX
  5
F7
  8
OUT
 10
-232.8126252594839
 20
-107.2687973361604
 30
-0.0000000000000219
  0
VERTEX
  5
F8
  8
OUT
 10
-160.8126252594839
 20
-107.2687973361626
 30
-0.0000000000000219
  0
VERTEX
  5
F9
  8
OUT
 10
-160.8126252594848
 20
-132.2687973361604
 30
-0.0000000000000219
  0
VERTEX
  5
FA
  8
OUT
 10
-148.8126252594839
 20
-132.2687973361604
 30
-0.0000000000000219
  0
VERTEX
  5
FB
  8
OUT
 10
-148.8126252594834
 20
-162.2687973361599
 30
-0.0000000000000219
  0
SEQEND
  5
FC
  8
OUT
  0
POINT
  5
FD
  8
CORNER_HOLES
 10
-232.8126252594839
 20
-132.2687973361604
 30
0.0000000000000126
  0
POINT
  5
FE
  8
CORNER_HOLES
 10
-232.812625259483
 20
-162.2687973361604
 30
0.000000000000004
  0
POINT
  5
FF
  8
CORNER_HOLES
 10
-160.8126252594848
 20
-132.2687973361604
 30
-0.0000000000000194
  0
POINT
  5
100
  8
CORNER_HOLES
 10
-160.8126252594843
 20
-162.2687973361604
 30
-0.0000000000000219
  0
LINE
  5
101
  8
CONSTRUCTION
 10
-160.8126252594839
 20
-87.00000000000091
 30
0.0000000000000657
 11
-160.8126252594839
 21
-107.2687973361626
 31
-0.0000000000000179
  0
POINT
  5
102
  8
CORNER_HOLES
 10
-160.8126252594834
 20
-246.9400620000771
 30
-0.0000000000001463
  0
POINT
  5
103
  8
CORNER_HOLES
 10
-160.8126252594839
 20
-276.9400620000766
 30
-0.0000000000001545
  0
POINT
  5
104
  8
CORNER_HOLES
 10
-232.8126252594825
 20
-276.9400620000766
 30
-0.0000000000001286
  0
POINT
  5
105
  8
CORNER_HOLES
 10
-232.8126252594825
 20
-246.9400620000771
 30
-0.0000000000001144
  0
POLYLINE
  5
106
  8
OUT
 66
     1
 10
0.0
 20
0.0
 30
-0.0000000000001545
 70
     1
  0
VERTEX
  5
107
  8
OUT
 10
-160.8126252594839
 20
-276.9400620000766
 30
-0.0000000000001545
  0
VERTEX
  5
108
  8
OUT
 10
-160.8126252594839
 20
-317.9400620000703
 30
-0.0000000000001545
  0
VERTEX
  5
109
  8
OUT
 10
-174.3126252594834
 20
-317.9400620000703
 30
-0.0000000000001545
  0
VERTEX
  5
10A
  8
OUT
 10
-174.3126252594834
 20
-300.1900620000789
 30
-0.0000000000001545
  0
VERTEX
  5
10B
  8
OUT
 10
-219.3126252594834
 20
-300.190062000078
 30
-0.0000000000001545
  0
VERTEX
  5
10C
  8
OUT
 10
-219.3126252594834
 20
-317.9400620000698
 30
-0.0000000000001545
  0
VERTEX
  5
10D
  8
OUT
 10
-232.8126252594825
 20
-317.9400620000698
 30
-0.0000000000001545
  0
VERTEX
  5
10E
  8
OUT
 10
-232.8126252594825
 20
-276.9400620000766
 30
-0.0000000000001545
  0
VERTEX
  5
10F
  8
OUT
 10
-244.812625259482
 20
-276.9400620000771
 30
-0.0000000000001545
  0
VERTEX
  5
110
  8
OUT
 10
-244.8126252594825
 20
-246.940062000078
 30
-0.0000000000001545
  0
VERTEX
  5
111
  8
OUT
 10
-232.8126252594825
 20
-246.9400620000771
 30
-0.0000000000001545
  0
VERTEX
  5
112
  8
OUT
 10
-232.8126252594834
 20
-221.940062000077
 30
-0.0000000000001545
  0
VERTEX
  5
113
  8
OUT
 10
-160.8126252594834
 20
-221.9400620000793
 30
-0.0000000000001545
  0
VERTEX
  5
114
  8
OUT
 10
-160.8126252594834
 20
-246.9400620000771
 30
-0.0000000000001545
  0
VERTEX
  5
115
  8
OUT
 10
-148.8126252594825
 20
-246.9400620000771
 30
-0.0000000000001545
  0
VERTEX
  5
116
  8
OUT
 10
-148.812625259483
 20
-276.9400620000762
 30
-0.0000000000001545
  0
SEQEND
  5
117
  8
OUT
  0
CIRCLE
  5
118
  8
IN
 10
-196.8126252594834
 20
-261.940062000078
 30
-0.0000000000001359
 40
18.25
  0
POLYLINE
  5
119
  8
DEFAULT
  6
DASHED
 66
     1
 10
0.0
 20
0.0
 30
-0.0000000000000821
  0
VERTEX
  5
11A
  8
DEFAULT
  6
DASHED
 10
-174.3126252594834
 20
-300.1900620000789
 30
-0.0000000000000821
  0
VERTEX
  5
11B
  8
DEFAULT
  6
DASHED
 10
-174.3126252594834
 20
-282.1900620000789
 30
-0.0000000000000821
  0
VERTEX
  5
11C
  8
DEFAULT
  6
DASHED
 10
-219.3126252594834
 20
-282.1900620000785
 30
-0.0000000000000821
  0
VERTEX
  5
11D
  8
DEFAULT
  6
DASHED
 10
-219.3126252594834
 20
-300.1900620000785
 30
-0.0000000000000821
  0
SEQEND
  5
11E
  8
DEFAULT
  6
DASHED
  0
LINE
  5
11F
  8
CONSTRUCTION
 10
-232.8126252594839
 20
-363.9792821691398
 30
0.0
 11
-232.8126252594839
 21
-462.7578434762928
 31
-0.0000000000001022
  0
LINE
  5
120
  8
CONSTRUCTION
 10
-160.8126252594839
 20
-363.9792821691398
 30
0.0
 11
-160.8126252594839
 21
-462.7578434762928
 31
-0.0000000000001022
  0
CIRCLE
  5
121
  8
IN
 10
-196.8126252594839
 20
-502.7578434762928
 30
-0.0000000000001022
 40
12.5
  0
POLYLINE
  5
122
  8
OUT
 66
     1
 10
0.0
 20
0.0
 30
-0.0000000000001022
 70
     1
  0
VERTEX
  5
123
  8
OUT
 10
-160.8126252594839
 20
-462.7578434762928
 30
-0.0000000000001022
  0
VERTEX
  5
124
  8
OUT
 10
-232.8126252594839
 20
-462.7578434762928
 30
-0.0000000000001022
  0
VERTEX
  5
125
  8
OUT
 10
-232.8126252594839
 20
-502.7578434762933
 30
-0.0000000000001022
 42
0.9999999999999999
  0
VERTEX
  5
126
  8
OUT
 10
-160.8126252594839
 20
-502.7578434762933
 30
-0.0000000000001022
  0
SEQEND
  5
127
  8
OUT
  0
CIRCLE
  5
128
  8
IN
 10
-196.8126252594839
 20
-403.9792821691398
 30
0.0
 40
23.0
  0
POLYLINE
  5
129
  8
OUT
 66
     1
 10
0.0
 20
0.0
 30
0.0
 70
     1
  0
VERTEX
  5
12A
  8
OUT
 10
-160.8126252594839
 20
-363.9792821691398
 30
0.0
  0
VERTEX
  5
12B
  8
OUT
 10
-232.8126252594839
 20
-363.9792821691398
 30
0.0
  0
VERTEX
  5
12C
  8
OUT
 10
-232.8126252594839
 20
-403.9792821691402
 30
0.0
 42
0.9999999999999999
  0
VERTEX
  5
12D
  8
OUT
 10
-160.8126252594839
 20
-403.9792821691402
 30
0.0
  0
SEQEND
  5
12E
  8
OUT
  0
LINE
  5
12F
  8
CONSTRUCTION
 10
-148.812625259482
 20
188.0000000000009
 30
0.000000000000115
 11
87.55087298019117
 21
188.0000000000009
 31
0.0
  0
POINT
  5
130
  8
2_MM_HOLES
 10
183.0724279085692
 20
121.1083873865332
 30
-0.0000000000001131
  0
POINT
  5
131
  8
2_MM_HOLES
 10
230.8021356386615
 20
73.37867965644091
 30
-0.0000000000001131
  0
POINT
  5
132
  8
2_MM_HOLES
 10
278.5318433687528
 20
25.64897192634953
 30
-0.0000000000001131
  0
POINT
  5
133
  8
2_MM_HOLES
 10
112.0508729801948
 20
182.0000000000004
 30
-0.0000000000000114
  0
POINT
  5
134
  8
2_MM_HOLES
 10
112.0508729801948
 20
53.0
 30
-0.0000000000000114
  0
POINT
  5
135
  8
2_MM_HOLES
 10
112.0508729801948
 20
65.0
 30
-0.0000000000000114
  0
POINT
  5
136
  8
2_MM_HOLES
 10
167.0508729801889
 20
53.0
 30
-0.0000000000000043
  0
POINT
  5
137
  8
2_MM_HOLES
 10
167.0508729801889
 20
64.99999999999955
 30
-0.0000000000000043
  0
POINT
  5
138
  8
2_MM_HOLES
 10
167.0508729801889
 20
182.0000000000004
 30
-0.0000000000000043
  0
POLYLINE
  5
139
  8
IN
 66
     1
 10
0.0
 20
0.0
 30
-0.0000000000001231
 70
     1
  0
VERTEX
  5
13A
  8
IN
 10
154.5508729801912
 20
47.00000000000091
 30
-0.0000000000001231
  0
VERTEX
  5
13B
  8
IN
 10
124.5508729801912
 20
47.00000000000091
 30
-0.0000000000001231
  0
VERTEX
  5
13C
  8
IN
 10
124.5508729801912
 20
71.00000000000091
 30
-0.0000000000001231
  0
VERTEX
  5
13D
  8
IN
 10
154.5508729801912
 20
71.00000000000091
 30
-0.0000000000001231
  0
SEQEND
  5
13E
  8
IN
  0
POLYLINE
  5
13F
  8
OUT
 66
     1
 10
0.0
 20
0.0
 30
-0.0000000000000124
 70
     1
  0
VERTEX
  5
140
  8
OUT
 10
124.5508729801912
 20
188.0000000000009
 30
-0.0000000000000124
  0
VERTEX
  5
141
  8
OUT
 10
87.55087298019117
 20
188.0000000000009
 30
-0.0000000000000124
  0
VERTEX
  5
142
  8
OUT
 10
87.55087298019163
 20
168.0000000000009
 30
-0.0000000000000124
  0
VERTEX
  5
143
  8
OUT
 10
99.55087298019117
 20
168.0000000000004
 30
-0.0000000000000124
  0
VERTEX
  5
144
  8
OUT
 10
99.55087298019117
 20
80.00000000000045
 30
-0.0000000000000124
  0
VERTEX
  5
145
  8
OUT
 10
87.55087298019117
 20
80.00000000000045
 30
-0.0000000000000124
  0
VERTEX
  5
146
  8
OUT
 10
87.55087298019117
 20
0.0000000000009095
 30
-0.0000000000000124
  0
VERTEX
  5
147
  8
OUT
 10
275.8638418309495
 20
-0.0000000000040927
 30
-0.0000000000000124
  0
VERTEX
  5
148
  8
OUT
 10
294.2649692501553
 20
18.40112741918801
 30
-0.0000000000000124
  0
VERTEX
  5
149
  8
OUT
 10
270.5768920804047
 20
42.0892045889359
 30
-0.0000000000000124
  0
VERTEX
  5
14A
  8
OUT
 10
262.0916107061701
 20
33.6039232147009
 30
-0.0000000000000124
  0
VERTEX
  5
14B
  8
OUT
 10
238.4035335364204
 20
57.29200038445015
 30
-0.0000000000000124
  0
VERTEX
  5
14C
  8
OUT
 10
246.8888149106595
 20
65.77728175868924
 30
-0.0000000000000124
  0
VERTEX
  5
14D
  8
OUT
 10
223.200737740908
 20
89.46535892843667
 30
-0.0000000000000124
  0
VERTEX
  5
14E
  8
OUT
 10
214.7154563666662
 20
80.9800775541944
 30
-0.0000000000000124
  0
VERTEX
  5
14F
  8
OUT
 10
191.0273791969165
 20
104.6681547239436
 30
-0.0000000000000124
  0
VERTEX
  5
150
  8
OUT
 10
199.5126605711583
 20
113.1534360981859
 30
-0.0000000000000124
  0
VERTEX
  5
151
  8
OUT
 10
175.8245834014081
 20
136.8415132679343
 30
-0.0000000000000124
  0
VERTEX
  5
152
  8
OUT
 10
195.5508729801921
 20
156.5678028467219
 30
-0.0000000000000124
  0
VERTEX
  5
153
  8
OUT
 10
195.5508729801912
 20
188.0000000000009
 30
-0.0000000000000124
  0
VERTEX
  5
154
  8
OUT
 10
154.5508729801912
 20
188.0000000000009
 30
-0.0000000000000124
  0
VERTEX
  5
155
  8
OUT
 10
154.5508729801912
 20
176.0000000000009
 30
-0.0000000000000124
  0
VERTEX
  5
156
  8
OUT
 10
124.5508729801912
 20
176.0000000000009
 30
-0.0000000000000124
  0
SEQEND
  5
157
  8
OUT
  0
POLYLINE
  5
158
  8
IN
 66
     1
 10
0.0
 20
0.0
 30
-0.000000000000015
 70
     1
  0
VERTEX
  5
159
  8
IN
 10
124.5508729801889
 20
145.7738636073764
 30
-0.000000000000015
  0
VERTEX
  5
15A
  8
IN
 10
154.5508729801912
 20
145.7738636073764
 30
-0.000000000000015
  0
VERTEX
  5
15B
  8
IN
 10
154.5508729801912
 20
101.2261363926245
 30
-0.000000000000015
  0
VERTEX
  5
15C
  8
IN
 10
124.5508729801912
 20
101.2261363926241
 30
-0.000000000000015
  0
SEQEND
  5
15D
  8
IN
  0
POINT
  5
15E
  8
CORNER_HOLES
 10
124.5508729801912
 20
176.0000000000009
 30
-0.0000000000001246
  0
POINT
  5
15F
  8
CORNER_HOLES
 10
154.5508729801912
 20
176.0000000000009
 30
-0.0000000000001102
  0
POINT
  5
160
  8
CORNER_HOLES
 10
99.55087298019117
 20
168.0000000000004
 30
-0.0000000000000601
  0
POINT
  5
161
  8
CORNER_HOLES
 10
99.55087298019117
 20
80.00000000000045
 30
-0.0000000000000147
  0
POINT
  5
162
  8
CORNER_HOLES
 10
124.5508729801912
 20
71.00000000000091
 30
0.0000000000000006
  0
POINT
  5
163
  8
CORNER_HOLES
 10
124.5508729801912
 20
47.00000000000091
 30
-0.0000000000001117
  0
POINT
  5
164
  8
CORNER_HOLES
 10
154.5508729801912
 20
47.00000000000091
 30
-0.0000000000001231
  0
POINT
  5
165
  8
CORNER_HOLES
 10
154.5508729801912
 20
71.00000000000091
 30
-0.0000000000000124
  0
POINT
  5
166
  8
CORNER_HOLES
 10
191.0273791969165
 20
104.6681547239436
 30
-0.0000000000001131
  0
POINT
  5
167
  8
CORNER_HOLES
 10
214.7154563666662
 20
80.9800775541944
 30
-0.0000000000001131
  0
POINT
  5
168
  8
CORNER_HOLES
 10
238.4035335364204
 20
57.29200038445015
 30
-0.0000000000001131
  0
POINT
  5
169
  8
CORNER_HOLES
 10
262.0916107061701
 20
33.6039232147009
 30
-0.0000000000001131
  0
POINT
  5
16A
  8
CORNER_HOLES
 10
65.88321707343233
 20
439.0
 30
0.0000000000000955
  0
POINT
  5
16B
  8
CORNER_HOLES
 10
65.88321707343233
 20
409.0
 30
0.0000000000001008
  0
POINT
  5
16C
  8
CORNER_HOLES
 10
-30.11678292655903
 20
439.0
 30
0.0000000000000955
  0
POINT
  5
16D
  8
CORNER_HOLES
 10
-30.11678292655903
 20
409.0
 30
0.0000000000001008
  0
POLYLINE
  5
16E
  8
OUT
 66
     1
 10
0.0
 20
0.0
 30
0.0000000000000955
 70
     1
  0
VERTEX
  5
16F
  8
OUT
 10
65.88321707343233
 20
439.0
 30
0.0000000000000955
  0
VERTEX
  5
170
  8
OUT
 10
65.88321707343233
 20
459.9999999999995
 30
0.0000000000000955
  0
VERTEX
  5
171
  8
OUT
 10
-30.11678292655903
 20
459.9999999999995
 30
0.0000000000000955
  0
VERTEX
  5
172
  8
OUT
 10
-30.11678292655903
 20
439.0
 30
0.0000000000000955
  0
VERTEX
  5
173
  8
OUT
 10
-42.11678292655903
 20
439.0
 30
0.0000000000000955
  0
VERTEX
  5
174
  8
OUT
 10
-42.11678292655903
 20
409.0
 30
0.0000000000000955
  0
VERTEX
  5
175
  8
OUT
 10
-30.11678292655903
 20
409.0
 30
0.0000000000000955
  0
VERTEX
  5
176
  8
OUT
 10
-30.11678292655903
 20
388.0000000000005
 30
0.0000000000000955
  0
VERTEX
  5
177
  8
OUT
 10
65.88321707343188
 20
388.0000000000005
 30
0.0000000000000955
  0
VERTEX
  5
178
  8
OUT
 10
65.88321707343233
 20
409.0
 30
0.0000000000000955
  0
VERTEX
  5
179
  8
OUT
 10
77.88321707343233
 20
409.0
 30
0.0000000000000955
  0
VERTEX
  5
17A
  8
OUT
 10
77.88321707343233
 20
439.0
 30
0.0000000000000955
  0
SEQEND
  5
17B
  8
OUT
  0
LINE
  5
17C
  8
CONSTRUCTION
 10
-61.81262525948102
 20
459.9999999999999
 30
0.0000000000001167
 11
-30.11678292655903
 21
459.9999999999995
 31
0.0000000000001038
  0
LINE
  5
17D
  8
CONSTRUCTION
 10
-61.81262525948114
 20
388.0000000000004
 30
0.000000000000113
 11
-30.11678292655903
 21
388.0000000000005
 31
0.0000000000000972
  0
LINE
  5
17E
  8
CONSTRUCTION
 10
-148.8126252594816
 20
168.0000000000009
 30
0.0000000000001096
 11
87.55087298019163
 21
168.0000000000009
 31
-0.0000000000000206
  0
LINE
  5
17F
  8
CONSTRUCTION
 10
-148.8126252594848
 20
80.00000000000091
 30
0.0000000000000657
 11
87.55087298019117
 21
80.00000000000045
 31
-0.0000000000000147
  0
LINE
  5
180
  8
CONSTRUCTION
 10
-148.8126252594848
 20
0.0000000000009095
 30
0.0000000000000686
 11
87.55087298019117
 21
0.0000000000009095
 31
-0.0000000000001146
  0
POINT
  5
182
  8
8_MM_HOLES
 10
376.5728666975128
 20
119.8009089060113
 30
-0.0000000000001185
  0
POINT
  5
183
  8
8_MM_HOLES
 10
345.096885343456
 20
237.3357975783445
 30
-0.000000000000115
  0
CIRCLE
  5
184
  8
IN
 10
326.9054760182452
 20
169.4820200360248
 30
-0.0000000000001131
 40
18.5
  0
POINT
  5
185
  8
2_MM_HOLES
 10
273.5120538132878
 20
163.4647521705663
 30
-0.0000000000001447
  0
POINT
  5
186
  8
2_MM_HOLES
 10
320.8882081527867
 20
116.0885978310674
 30
-0.000000000000147
  0
POINT
  5
187
  8
2_MM_HOLES
 10
380.2851777724567
 20
175.4855674507373
 30
-0.0000000000001321
  0
POINT
  5
188
  8
2_MM_HOLES
 10
332.9090234329582
 20
222.8617217902359
 30
-0.0000000000001298
  0
POLYLINE
  5
189
  8
OUT
 66
     1
 10
0.0
 20
0.0
 30
-0.0000000000001284
 70
     1
  0
VERTEX
  5
18A
  8
OUT
 10
233.6312313543671
 20
194.6481612208925
 30
-0.0000000000001284
  0
VERTEX
  5
18B
  8
OUT
 10
208.465090169499
 20
169.4820200360243
 30
-0.0000000000001284
  0
VERTEX
  5
18C
  8
OUT
 10
301.7393348333748
 20
76.2077753721467
 30
-0.0000000000001284
 42
0.4142135623731081
  0
VERTEX
  5
18D
  8
OUT
 10
352.0716172031124
 20
76.20777537214559
 30
-0.0000000000001284
  0
VERTEX
  5
18E
  8
OUT
 10
328.2774740161862
 20
100.0019185590734
 30
-0.0000000000001284
  0
VERTEX
  5
18F
  8
OUT
 10
336.9748874247807
 20
108.6993319676679
 30
-0.0000000000001284
  0
VERTEX
  5
190
  8
OUT
 10
360.7690306117078
 20
84.90518878074118
 30
-0.0000000000001284
  0
VERTEX
  5
191
  8
OUT
 10
411.4685868227829
 20
135.6047449918163
 30
-0.0000000000001284
  0
VERTEX
  5
192
  8
OUT
 10
387.6744436358562
 20
159.3988881787434
 30
-0.0000000000001284
  0
VERTEX
  5
193
  8
OUT
 10
396.3718570444507
 20
168.0963015873374
 30
-0.0000000000001284
  0
VERTEX
  5
194
  8
OUT
 10
420.1660002313778
 20
144.3021584004112
 30
-0.0000000000001284
 42
0.4139877968290609
  0
VERTEX
  5
195
  8
OUT
 10
420.1797206821233
 20
194.6481612208948
 30
-0.0000000000001284
  0
VERTEX
  5
196
  8
OUT
 10
326.9054760182457
 20
287.922405884772
 30
-0.0000000000001284
  0
VERTEX
  5
197
  8
OUT
 10
301.7256143826316
 20
262.742544249157
 30
-0.0000000000001284
  0
VERTEX
  5
198
  8
OUT
 10
325.5197575695587
 20
238.9484010622298
 30
-0.0000000000001284
  0
VERTEX
  5
199
  8
OUT
 10
316.8223441609643
 20
230.2509876536358
 30
-0.0000000000001284
  0
VERTEX
  5
19A
  8
OUT
 10
293.0282009740371
 20
254.0451308405625
 30
-0.0000000000001284
  0
VERTEX
  5
19B
  8
OUT
 10
242.3286447629629
 20
203.3455746294856
 30
-0.0000000000001284
  0
VERTEX
  5
19C
  8
OUT
 10
266.1227879498883
 20
179.5514314425602
 30
-0.0000000000001284
  0
VERTEX
  5
19D
  8
OUT
 10
257.4253745412938
 20
170.8540180339658
 30
-0.0000000000001284
  0
SEQEND
  5
19E
  8
OUT
  0
POLYLINE
  5
19F
  8
IN
 66
     1
 10
0.0
 20
0.0
 30
-0.0000000000001599
 70
     1
  0
VERTEX
  5
1A0
  8
IN
 10
280.9013196766877
 20
147.3780728985724
 30
-0.0000000000001599
  0
VERTEX
  5
1A1
  8
IN
 10
289.5987330852817
 20
156.0754863071668
 30
-0.0000000000001599
  0
VERTEX
  5
1A2
  8
IN
 10
313.4989422893872
 20
132.1752771030613
 30
-0.0000000000001599
  0
VERTEX
  5
1A3
  8
IN
 10
304.8015288807928
 20
123.4778636944669
 30
-0.0000000000001599
  0
SEQEND
  5
1A4
  8
IN
  0
POLYLINE
  5
1A5
  8
IN
 66
     1
 10
0.0
 20
0.0
 30
-0.0000000000001155
 70
     1
  0
VERTEX
  5
1A6
  8
IN
 10
348.9957027049522
 20
215.4724559268364
 30
-0.0000000000001155
  0
VERTEX
  5
1A7
  8
IN
 10
340.2982892963577
 20
206.7750425182424
 30
-0.0000000000001155
  0
VERTEX
  5
1A8
  8
IN
 10
364.1984985004628
 20
182.8748333141368
 30
-0.0000000000001155
  0
VERTEX
  5
1A9
  8
IN
 10
372.8959119090572
 20
191.5722467227313
 30
-0.0000000000001155
  0
SEQEND
  5
1AA
  8
IN
  0
POINT
  5
1AB
  8
CORNER_HOLES
 10
257.4253745412938
 20
170.8540180339658
 30
-0.0000000000001441
  0
POINT
  5
1AC
  8
CORNER_HOLES
 10
266.1227879498883
 20
179.5514314425602
 30
-0.0000000000001441
  0
POINT
  5
1AD
  8
CORNER_HOLES
 10
316.8223441609643
 20
230.2509876536358
 30
-0.0000000000001441
  0
POINT
  5
1AE
  8
CORNER_HOLES
 10
325.5197575695587
 20
238.9484010622298
 30
-0.0000000000001441
  0
POINT
  5
1AF
  8
CORNER_HOLES
 10
396.3718570444507
 20
168.0963015873374
 30
-0.0000000000001476
  0
POINT
  5
1B0
  8
CORNER_HOLES
 10
387.6744436358562
 20
159.3988881787434
 30
-0.0000000000001476
  0
POINT
  5
1B1
  8
CORNER_HOLES
 10
336.9748874247807
 20
108.6993319676679
 30
-0.0000000000001476
  0
POINT
  5
1B2
  8
CORNER_HOLES
 10
328.2774740161862
 20
100.0019185590734
 30
-0.0000000000001476
  0
POINT
  5
1B3
  8
8_MM_HOLES
 10
259.0466764524398
 20
151.3093531572266
 30
-0.0000000000001147
  0
LINE
  5
1B4
  8
CONSTRUCTION
 10
223.200737740908
 20
89.46535892843667
 30
-0.0000000000001131
 11
280.9013196766877
 21
147.3780728985724
 31
-0.0000000000001599
  0
LINE
  5
1B5
  8
CONSTRUCTION
 10
246.8888149106595
 20
65.77728175868924
 30
-0.0000000000001131
 11
304.8015288807928
 21
123.4778636944669
 31
-0.0000000000001611
  0
LINE
  5
1B6
  8
CONSTRUCTION
 10
294.2649692501553
 20
18.40112741918801
 30
-0.0000000000001131
 11
352.0716172031129
 21
76.20777537214582
 31
-0.000000000000081
  0
LINE
  5
1B7
  8
CONSTRUCTION
 10
124.5508729801912
 20
188.0000000000009
 30
-0.0000000000000124
 11
124.5508729801912
 21
225.1941319156508
 31
0.0
  0
CIRCLE
  5
1B9
  8
TASCHE
 10
121.3508729801977
 20
262.6863570164014
 30
-0.0000000000000245
 40
3.0
  0
CIRCLE
  5
1BA
  8
TASCHE
 10
121.3508729801977
 20
262.6863570164014
 30
-0.0000000000000245
 40
6.0
  0
CIRCLE
  5
1BB
  8
TASCHE
 10
157.7508729801964
 20
262.6863570163973
 30
-0.0000000000000245
 40
3.0
  0
CIRCLE
  5
1BC
  8
TASCHE
 10
157.7508729801964
 20
262.6863570163973
 30
-0.0000000000000245
 40
6.0
  0
CIRCLE
  5
1BD
  8
TASCHE
 10
139.5508729802025
 20
294.2096817141542
 30
-0.0000000000000245
 40
6.0
  0
CIRCLE
  5
1BE
  8
TASCHE
 10
139.5508729802025
 20
294.2096817141542
 30
-0.0000000000000245
 40
3.0
  0
CIRCLE
  5
1BF
  8
IN
 10
139.5508729801994
 20
273.1941319156508
 30
-0.0000000000000245
 40
12.0
  0
POLYLINE
  5
1C0
  8
OUT
 66
     1
 10
0.0
 20
0.0
 30
0.0000000000000822
 70
     1
  0
VERTEX
  5
1C1
  8
OUT
 10
195.5508729801903
 20
309.1941319156495
 30
0.0000000000000822
  0
VERTEX
  5
1C2
  8
OUT
 10
195.5508729801903
 20
237.1941319156508
 30
0.0000000000000822
  0
VERTEX
  5
1C3
  8
OUT
 10
154.5508729801903
 20
237.1941319156508
 30
0.0000000000000822
  0
VERTEX
  5
1C4
  8
OUT
 10
154.5508729801907
 20
225.1941319156513
 30
0.0000000000000822
  0
VERTEX
  5
1C5
  8
OUT
 10
124.5508729801912
 20
225.1941319156508
 30
0.0000000000000822
  0
VERTEX
  5
1C6
  8
OUT
 10
124.5508729801903
 20
237.1941319156508
 30
0.0000000000000822
  0
VERTEX
  5
1C7
  8
OUT
 10
99.55087298019754
 20
237.1941319156499
 30
0.0000000000000822
  0
VERTEX
  5
1C8
  8
OUT
 10
99.55087298019936
 20
309.1941319156499
 30
0.0000000000000822
  0
VERTEX
  5
1C9
  8
OUT
 10
124.5508729801903
 20
309.1941319156499
 30
0.0000000000000822
  0
VERTEX
  5
1CA
  8
OUT
 10
124.5508729801903
 20
321.1941319156508
 30
0.0000000000000822
  0
VERTEX
  5
1CB
  8
OUT
 10
154.5508729801898
 20
321.1941319156504
 30
0.0000000000000822
  0
VERTEX
  5
1CC
  8
OUT
 10
154.5508729801903
 20
309.1941319156495
 30
0.0000000000000822
  0
SEQEND
  5
1CD
  8
OUT
  0
POINT
  5
1CE
  8
CORNER_HOLES
 10
124.5508729801903
 20
237.1941319156508
 30
-0.0000000000000032
  0
POINT
  5
1CF
  8
CORNER_HOLES
 10
154.5508729801903
 20
237.1941319156508
 30
0.0000000000000068
  0
POINT
  5
1D0
  8
CORNER_HOLES
 10
124.5508729801903
 20
309.1941319156499
 30
-0.0000000000000352
  0
POINT
  5
1D1
  8
CORNER_HOLES
 10
154.5508729801903
 20
309.1941319156495
 30
-0.0000000000000191
  0
LINE
  5
1D2
  8
CONSTRUCTION
 10
154.5508729801912
 20
188.0000000000009
 30
0.0000000000000006
 11
154.5508729801907
 21
225.1941319156513
 31
0.0000000000000124
  0
LINE
  5
1D3
  8
CONSTRUCTION
 10
195.5508729801912
 20
188.0000000000009
 30
0.0000000000000537
 11
195.5508729801903
 21
237.1941319156508
 31
0.0000000000001008
  0
LINE
  5
1D4
  8
CONSTRUCTION
 10
359.5459827863365
 20
320.5629126528621
 30
-0.0000000000001202
 11
326.9054760182457
 21
287.922405884772
 31
-0.0000000000001202
  0
POINT
  5
1D5
  8
2_MM_HOLES
 10
375.2791086677376
 20
313.3150681457005
 30
-0.0000000000001202
  0
POINT
  5
1D6
  8
2_MM_HOLES
 10
423.0088163978299
 20
265.5853604156082
 30
-0.0000000000001202
  0
POINT
  5
1D7
  8
2_MM_HOLES
 10
470.7385241279213
 20
217.8556526855169
 30
-0.0000000000001202
  0
POINT
  5
1D8
  8
2_MM_HOLES
 10
314.3874960542703
 20
384.3366230740749
 30
-0.0000000000000185
  0
POINT
  5
1D9
  8
2_MM_HOLES
 10
443.3874960542708
 20
384.3366230740749
 30
-0.0000000000000185
  0
POINT
  5
1DA
  8
2_MM_HOLES
 10
431.3874960542708
 20
384.3366230740749
 30
-0.0000000000000185
  0
POINT
  5
1DB
  8
2_MM_HOLES
 10
443.3874960542708
 20
329.3366230740808
 30
-0.0000000000000114
  0
POINT
  5
1DC
  8
2_MM_HOLES
 10
431.3874960542713
 20
329.3366230740808
 30
-0.0000000000000114
  0
POINT
  5
1DD
  8
2_MM_HOLES
 10
314.3874960542703
 20
329.3366230740808
 30
-0.0000000000000114
  0
POLYLINE
  5
1DE
  8
IN
 66
     1
 10
0.0
 20
0.0
 30
-0.0000000000001302
 70
     1
  0
VERTEX
  5
1DF
  8
IN
 10
449.3874960542699
 20
341.8366230740785
 30
-0.0000000000001302
  0
VERTEX
  5
1E0
  8
IN
 10
449.3874960542699
 20
371.8366230740785
 30
-0.0000000000001302
  0
VERTEX
  5
1E1
  8
IN
 10
425.3874960542699
 20
371.8366230740785
 30
-0.0000000000001302
  0
VERTEX
  5
1E2
  8
IN
 10
425.3874960542699
 20
341.8366230740785
 30
-0.0000000000001302
  0
SEQEND
  5
1E3
  8
IN
  0
POLYLINE
  5
1E4
  8
OUT
 66
     1
 10
0.0
 20
0.0
 30
-0.0000000000000195
 70
     1
  0
VERTEX
  5
1E5
  8
OUT
 10
308.3874960542699
 20
371.8366230740785
 30
-0.0000000000000195
  0
VERTEX
  5
1E6
  8
OUT
 10
308.3874960542699
 20
408.8366230740785
 30
-0.0000000000000195
  0
VERTEX
  5
1E7
  8
OUT
 10
328.3874960542699
 20
408.8366230740785
 30
-0.0000000000000195
  0
VERTEX
  5
1E8
  8
OUT
 10
328.3874960542703
 20
396.8366230740785
 30
-0.0000000000000195
  0
VERTEX
  5
1E9
  8
OUT
 10
416.3874960542703
 20
396.8366230740785
 30
-0.0000000000000195
  0
VERTEX
  5
1EA
  8
OUT
 10
416.3874960542703
 20
408.8366230740785
 30
-0.0000000000000195
  0
VERTEX
  5
1EB
  8
OUT
 10
496.3874960542699
 20
408.836623074079
 30
-0.0000000000000195
  0
VERTEX
  5
1EC
  8
OUT
 10
496.3874960542749
 20
220.5236542233202
 30
-0.0000000000000195
  0
VERTEX
  5
1ED
  8
OUT
 10
477.9863686350828
 20
202.1225268041149
 30
-0.0000000000000195
  0
VERTEX
  5
1EE
  8
OUT
 10
454.2982914653349
 20
225.8106039738655
 30
-0.0000000000000195
  0
VERTEX
  5
1EF
  8
OUT
 10
462.7835728395699
 20
234.2958853481001
 30
-0.0000000000000195
  0
VERTEX
  5
1F0
  8
OUT
 10
439.0954956698207
 20
257.9839625178498
 30
-0.0000000000000195
  0
VERTEX
  5
1F1
  8
OUT
 10
430.6102142955816
 20
249.4986811436107
 30
-0.0000000000000195
  0
VERTEX
  5
1F2
  8
OUT
 10
406.9221371258341
 20
273.1867583133622
 30
-0.0000000000000195
  0
VERTEX
  5
1F3
  8
OUT
 10
415.4074185000764
 20
281.672039687604
 30
-0.0000000000000195
  0
VERTEX
  5
1F4
  8
OUT
 10
391.7193413303272
 20
305.3601168573537
 30
-0.0000000000000195
  0
VERTEX
  5
1F5
  8
OUT
 10
383.2340599560849
 20
296.8748354831114
 30
-0.0000000000000195
  0
VERTEX
  5
1F6
  8
OUT
 10
359.5459827863365
 20
320.5629126528621
 30
-0.0000000000000195
  0
VERTEX
  5
1F7
  8
OUT
 10
339.8196932075489
 20
300.8366230740776
 30
-0.0000000000000195
  0
VERTEX
  5
1F8
  8
OUT
 10
308.3874960542699
 20
300.8366230740785
 30
-0.0000000000000195
  0
VERTEX
  5
1F9
  8
OUT
 10
308.3874960542699
 20
341.8366230740785
 30
-0.0000000000000195
  0
VERTEX
  5
1FA
  8
OUT
 10
320.3874960542699
 20
341.8366230740785
 30
-0.0000000000000195
  0
VERTEX
  5
1FB
  8
OUT
 10
320.3874960542699
 20
371.8366230740785
 30
-0.0000000000000195
  0
SEQEND
  5
1FC
  8
OUT
  0
POLYLINE
  5
1FD
  8
IN
 66
     1
 10
0.0
 20
0.0
 30
-0.0000000000000221
 70
     1
  0
VERTEX
  5
1FE
  8
IN
 10
350.6136324468944
 20
371.8366230740808
 30
-0.0000000000000221
  0
VERTEX
  5
1FF
  8
IN
 10
350.6136324468944
 20
341.836623074079
 30
-0.0000000000000221
  0
VERTEX
  5
200
  8
IN
 10
395.1613596616463
 20
341.8366230740785
 30
-0.0000000000000221
  0
VERTEX
  5
201
  8
IN
 10
395.1613596616467
 20
371.8366230740785
 30
-0.0000000000000221
  0
SEQEND
  5
202
  8
IN
  0
POINT
  5
203
  8
CORNER_HOLES
 10
320.3874960542699
 20
371.8366230740785
 30
-0.0000000000001317
  0
POINT
  5
204
  8
CORNER_HOLES
 10
320.3874960542699
 20
341.8366230740785
 30
-0.0000000000001173
  0
POINT
  5
205
  8
CORNER_HOLES
 10
328.3874960542703
 20
396.8366230740785
 30
-0.0000000000000672
  0
POINT
  5
206
  8
CORNER_HOLES
 10
416.3874960542703
 20
396.8366230740785
 30
-0.0000000000000218
  0
POINT
  5
207
  8
CORNER_HOLES
 10
425.3874960542699
 20
371.8366230740785
 30
-0.0000000000000066
  0
POINT
  5
208
  8
CORNER_HOLES
 10
449.3874960542699
 20
371.8366230740785
 30
-0.0000000000001188
  0
POINT
  5
209
  8
CORNER_HOLES
 10
449.3874960542699
 20
341.8366230740785
 30
-0.0000000000001302
  0
POINT
  5
20A
  8
CORNER_HOLES
 10
425.3874960542699
 20
341.8366230740785
 30
-0.0000000000000195
  0
POINT
  5
20B
  8
CORNER_HOLES
 10
391.7193413303272
 20
305.3601168573537
 30
-0.0000000000001202
  0
POINT
  5
20C
  8
CORNER_HOLES
 10
415.4074185000764
 20
281.672039687604
 30
-0.0000000000001202
  0
POINT
  5
20D
  8
CORNER_HOLES
 10
439.0954956698207
 20
257.9839625178498
 30
-0.0000000000001202
  0
POINT
  5
20E
  8
CORNER_HOLES
 10
462.7835728395699
 20
234.2958853481001
 30
-0.0000000000001202
  0
LINE
  5
20F
  8
CONSTRUCTION
 10
348.9957027049522
 20
215.4724559268364
 30
-0.0000000000001155
 11
406.9221371258341
 21
273.1867583133622
 31
-0.0000000000001202
  0
LINE
  5
210
  8
CONSTRUCTION
 10
372.8959119090572
 20
191.5722467227313
 30
-0.0000000000001167
 11
430.6102142955816
 21
249.4986811436107
 31
-0.0000000000001202
  0
LINE
  5
211
  8
CONSTRUCTION
 10
420.1660002313778
 20
144.3021584004112
 30
-0.0000000000001098
 11
477.9863686350828
 21
202.1225268041149
 31
-0.0000000000001202
  0
POLYLINE
  5
213
  8
DRAWING
 66
     1
 10
0.0
 20
0.0
 30
-0.0000000000000511
 70
     1
  0
VERTEX
  5
214
  8
DRAWING
 10
-252.8126252594854
 20
-558.757843476293
 30
-0.0000000000000511
  0
VERTEX
  5
215
  8
DRAWING
 10
-252.8126252594839
 20
-343.9792821691398
 30
-0.0000000000000511
  0
VERTEX
  5
216
  8
DRAWING
 10
-140.8126252594843
 20
-343.9792821691398
 30
-0.0000000000000511
  0
VERTEX
  5
217
  8
DRAWING
 10
-140.8126252594839
 20
-558.7578434762943
 30
-0.0000000000000511
  0
SEQEND
  5
218
  8
DRAWING
  0
POLYLINE
  5
219
  8
DRAWING
 66
     1
 10
0.0
 20
0.0
 30
-0.0000000000000511
 70
     1
  0
VERTEX
  5
21A
  8
DRAWING
 10
-252.8126252594854
 20
-330.8645049682805
 30
-0.0000000000000511
  0
VERTEX
  5
21B
  8
DRAWING
 10
-252.8126252594836
 20
-97.30266063483604
 30
-0.0000000000000511
  0
VERTEX
  5
21C
  8
DRAWING
 10
-140.8126252594841
 20
-97.30266063483593
 30
-0.0000000000000511
  0
VERTEX
  5
21D
  8
DRAWING
 10
-140.8126252594839
 20
-330.8645049682818
 30
-0.0000000000000511
  0
SEQEND
  5
21E
  8
DRAWING
  0
INSERT
  5
221
  8
DEFAULT
  2
*X1
 10
0.0
 20
0.0
 30
0.0
  0
TEXT
  5
222
  8
DEFAULT
  6
CONTINUOUS
 10
-133.8912549458539
 20
-283.7140978348409
 30
-0.0000000000001025
 40
4.0
  1
Cutting 45°
  0
INSERT
  5
223
  8
DEFAULT
  2
*X2
 10
0.0
 20
0.0
 30
0.0
  0
TEXT
  5
224
  8
DEFAULT
  6
CONTINUOUS
 10
-133.4051748666357
 20
-169.0428331709247
 30
0.0000000000000244
 40
4.0
  1
Cutting 45°
  0
POLYLINE
  5
225
  8
DEFAULT
 66
     1
 10
0.0
 20
0.0
 30
0.0
 70
     1
  0
VERTEX
  5
226
  8
DEFAULT
 10
-331.7295817888694
 20
-191.6882162455322
 30
0.0
 42
-0.1018416397943178
  0
VERTEX
  5
227
  8
DEFAULT
 10
-331.2820506891931
 20
-189.1322745048546
 30
0.0
 42
-0.0880713985140675
  0
VERTEX
  5
228
  8
DEFAULT
 10
-330.3691453243282
 20
-187.7650873359966
 30
0.0
 42
-0.102895038677853
  0
VERTEX
  5
229
  8
DEFAULT
 10
-329.1022664442274
 20
-186.8676143053759
 30
0.0
 42
-0.1024921346879677
  0
VERTEX
  5
22A
  8
DEFAULT
 10
-326.989997719665
 20
-186.4731318546639
 30
0.0
 42
-0.2135832424529528
  0
VERTEX
  5
22B
  8
DEFAULT
 10
-323.5235628582631
 20
-187.8398367630768
 30
0.0
 42
-0.1971385617084906
  0
VERTEX
  5
22C
  8
DEFAULT
 10
-322.2234089493633
 20
-191.6409556638244
 30
0.0
 42
-0.1964469629781165
  0
VERTEX
  5
22D
  8
DEFAULT
 10
-323.5134358598728
 20
-195.4184442737182
 30
0.0
 42
-0.214346091317361
  0
VERTEX
  5
22E
  8
DEFAULT
 10
-326.9629920766526
 20
-196.7817738299725
 30
0.0
 42
-0.2134143313661359
  0
VERTEX
  5
22F
  8
DEFAULT
 10
-330.4395544074023
 20
-195.4251954489925
 30
0.0
 42
-0.1973863237065295
  0
SEQEND
  5
230
  8
DEFAULT
  0
POLYLINE
  5
231
  8
DEFAULT
 66
     1
 10
0.0
 20
0.0
 30
0.0
 70
     1
  0
VERTEX
  5
232
  8
DEFAULT
 10
-329.6925447518323
 20
-191.620700725129
 30
0.0
 42
0.1838510025519741
  0
VERTEX
  5
233
  8
DEFAULT
 10
-328.9223861239386
 20
-194.1814650702579
 30
0.0
 42
0.2254577132434943
  0
VERTEX
  5
234
  8
DEFAULT
 10
-326.9668501602137
 20
-195.0533787682442
 30
0.0
 42
0.2262475935246308
  0
VERTEX
  5
235
  8
DEFAULT
 10
-325.0204766739888
 20
-194.1882167164897
 30
0.0
 42
0.1821100867906374
  0
VERTEX
  5
236
  8
DEFAULT
 10
-324.2604459864002
 20
-191.5936950821166
 30
0.0
 42
0.1818651488237582
  0
VERTEX
  5
237
  8
DEFAULT
 10
-325.0007044666958
 20
-189.0425759458903
 30
0.0
 42
0.225613184152175
  0
VERTEX
  5
238
  8
DEFAULT
 10
-326.9668501602137
 20
-188.2015269163923
 30
0.0
 42
0.2254805064308704
  0
VERTEX
  5
239
  8
DEFAULT
 10
-328.942158802189
 20
-189.052703415238
 30
0.0
 42
0.1823590794119257
  0
SEQEND
  5
23A
  8
DEFAULT
  0
POLYLINE
  5
23B
  8
DEFAULT
 66
     1
 10
0.0
 20
0.0
 30
0.0
 70
     1
  0
VERTEX
  5
23C
  8
DEFAULT
 10
-314.0752608012151
 20
-196.5965886447874
 30
0.0
  0
VERTEX
  5
23D
  8
DEFAULT
 10
-315.9888410481286
 20
-196.5965886447874
 30
0.0
  0
VERTEX
  5
23E
  8
DEFAULT
 10
-315.9888410481286
 20
-192.9092808543032
 30
0.0
 42
0.0659043403441834
  0
VERTEX
  5
23F
  8
DEFAULT
 10
-316.1094042755813
 20
-191.3950061335103
 30
0.0
 42
0.1600130695766137
  0
VERTEX
  5
240
  8
DEFAULT
 10
-316.50099363458
 20
-190.8611522979856
 30
0.0
 42
0.1575149176299025
  0
VERTEX
  5
241
  8
DEFAULT
 10
-317.1529998662891
 20
-190.6706627188614
 30
0.0
 42
0.1576987046345208
  0
VERTEX
  5
242
  8
DEFAULT
 10
-318.0292534373241
 20
-190.9426533712976
 30
0.0
 42
0.1684371822616948
  0
VERTEX
  5
243
  8
DEFAULT
 10
-318.5611787020258
 20
-191.6636214337881
 30
0.0
 42
0.0659809918576445
  0
VERTEX
  5
244
  8
DEFAULT
 10
-318.7048904308447
 20
-193.3240191856255
 30
0.0
  0
VERTEX
  5
245
  8
DEFAULT
 10
-318.7048904308447
 20
-196.5965886447874
 30
0.0
  0
VERTEX
  5
246
  8
DEFAULT
 10
-320.6184706777582
 20
-196.5965886447874
 30
0.0
  0
VERTEX
  5
247
  8
DEFAULT
 10
-320.6184706777582
 20
-189.3743664225651
 30
0.0
  0
VERTEX
  5
248
  8
DEFAULT
 10
-318.8283472209681
 20
-189.3743664225651
 30
0.0
  0
VERTEX
  5
249
  8
DEFAULT
 10
-318.8283472209681
 20
-190.4276062802606
 30
0.0
 42
-0.2486296121988635
  0
VERTEX
  5
24A
  8
DEFAULT
 10
-316.4749520415004
 20
-189.18918123738
 30
0.0
 42
-0.1053164015608136
  0
VERTEX
  5
24B
  8
DEFAULT
 10
-315.3324944724133
 20
-189.4177689207119
 30
0.0
 42
-0.1292191717088705
  0
VERTEX
  5
24C
  8
DEFAULT
 10
-314.5493152834586
 20
-190.0008128506825
 30
0.0
 42
-0.1054932374262331
  0
VERTEX
  5
24D
  8
DEFAULT
 10
-314.1794271735333
 20
-190.8056932887106
 30
0.0
 42
-0.0533641385176606
  0
VERTEX
  5
24E
  8
DEFAULT
 10
-314.0752608012151
 20
-192.0952374678176
 30
0.0
  0
SEQEND
  5
24F
  8
DEFAULT
  0
POLYLINE
  5
250
  8
DEFAULT
 66
     1
 10
0.0
 20
0.0
 30
0.0
 70
     1
  0
VERTEX
  5
251
  8
DEFAULT
 10
-307.9641496901039
 20
-194.3126380275034
 30
0.0
  0
VERTEX
  5
252
  8
DEFAULT
 10
-306.0505694431903
 20
-194.5595516077503
 30
0.0
 42
-0.1601948643917213
  0
VERTEX
  5
253
  8
DEFAULT
 10
-307.2137637404606
 20
-196.2136795028436
 30
0.0
 42
-0.1590209405814153
  0
VERTEX
  5
254
  8
DEFAULT
 10
-309.2035392538749
 20
-196.7817738299726
 30
0.0
 42
-0.2510606897923964
  0
VERTEX
  5
255
  8
DEFAULT
 10
-312.0006074494578
 20
-195.543347845177
 30
0.0
 42
-0.1603231689598241
  0
VERTEX
  5
256
  8
DEFAULT
 10
-312.717236109857
 20
-193.0404538115487
 30
0.0
 42
-0.192898891945068
  0
VERTEX
  5
257
  8
DEFAULT
 10
-311.772502026571
 20
-190.2115573685021
 30
0.0
 42
-0.2186957110499728
  0
VERTEX
  5
258
  8
DEFAULT
 10
-309.3839027765237
 20
-189.1891812373799
 30
0.0
 42
-0.2248762650829647
  0
VERTEX
  5
259
  8
DEFAULT
 10
-306.824102952285
 20
-190.2525490353807
 30
0.0
 42
-0.1866850592647442
  0
VERTEX
  5
25A
  8
DEFAULT
 10
-305.9271126530669
 20
-193.5101688917009
 30
0.0
  0
VERTEX
  5
25B
  8
DEFAULT
 10
-310.8036558629435
 20
-193.5101688917009
 30
0.0
 42
0.1907233177561564
  0
VERTEX
  5
25C
  8
DEFAULT
 10
-310.3315294805656
 20
-194.8291309579609
 30
0.0
 42
0.2135192120774308
  0
VERTEX
  5
25D
  8
DEFAULT
 10
-309.2064328165457
 20
-195.300292348491
 30
0.0
 42
0.1657236937101249
  0
VERTEX
  5
25E
  8
DEFAULT
 10
-308.4362751305669
 20
-195.0663993293052
 30
0.0
 42
0.1589948514629342
  0
SEQEND
  5
25F
  8
DEFAULT
  0
POLYLINE
  5
260
  8
DEFAULT
 66
     1
 10
0.0
 20
0.0
 30
0.0
 70
     1
  0
VERTEX
  5
261
  8
DEFAULT
 10
-307.8406928999805
 20
-192.3373293855281
 30
0.0
 42
0.1931771868552732
  0
VERTEX
  5
262
  8
DEFAULT
 10
-308.2800251011321
 20
-191.0955275776166
 30
0.0
 42
0.2094545272841389
  0
VERTEX
  5
263
  8
DEFAULT
 10
-309.2980613592055
 20
-190.6706627188614
 30
0.0
 42
0.217515125702202
  0
VERTEX
  5
264
  8
DEFAULT
 10
-310.3580538050477
 20
-191.119157397513
 30
0.0
 42
0.1974850402976125
  0
VERTEX
  5
265
  8
DEFAULT
 10
-310.7698976317843
 20
-192.3373293855281
 30
0.0
  0
SEQEND
  5
266
  8
DEFAULT
  0
POLYLINE
  5
267
  8
DEFAULT
 66
     1
 10
0.0
 20
0.0
 30
0.0
 70
     1
  0
VERTEX
  5
268
  8
DEFAULT
 10
-300.6184706777582
 20
-189.3743664225651
 30
0.0
  0
VERTEX
  5
269
  8
DEFAULT
 10
-298.8283472209681
 20
-189.3743664225651
 30
0.0
  0
VERTEX
  5
26A
  8
DEFAULT
 10
-298.8283472209681
 20
-190.4276062802606
 30
0.0
 42
-0.1189653659008114
  0
VERTEX
  5
26B
  8
DEFAULT
 10
-297.9038676054201
 20
-189.5383321481646
 30
0.0
 42
-0.1382105598910471
  0
VERTEX
  5
26C
  8
DEFAULT
 10
-296.6109466612823
 20
-189.18918123738
 30
0.0
 42
-0.227364875885063
  0
VERTEX
  5
26D
  8
DEFAULT
 10
-294.5073595666471
 20
-190.1811754314163
 30
0.0
 42
-0.1838682188936044
  0
VERTEX
  5
26E
  8
DEFAULT
 10
-293.643162035783
 20
-192.9440036063525
 30
0.0
 42
-0.1823656645300294
  0
VERTEX
  5
26F
  8
DEFAULT
 10
-294.5145930023666
 20
-195.7729000493992
 30
0.0
 42
-0.228559454157481
  0
VERTEX
  5
270
  8
DEFAULT
 10
-296.6263789955265
 20
-196.7817738299726
 30
0.0
 42
-0.1163198006807201
  0
VERTEX
  5
271
  8
DEFAULT
 10
-297.6960166502714
 20
-196.5454695085611
 30
0.0
 42
-0.090415238077796
  0
VERTEX
  5
272
  8
DEFAULT
 10
-298.7048904308447
 20
-195.735283734679
 30
0.0
  0
VERTEX
  5
273
  8
DEFAULT
 10
-298.7048904308447
 20
-199.3743664225651
 30
0.0
  0
VERTEX
  5
274
  8
DEFAULT
 10
-300.6184706777582
 20
-199.3743664225651
 30
0.0
  0
SEQEND
  5
275
  8
DEFAULT
  0
POLYLINE
  5
276
  8
DEFAULT
 66
     1
 10
0.0
 20
0.0
 30
0.0
 70
     1
  0
VERTEX
  5
277
  8
DEFAULT
 10
-298.7048904308447
 20
-192.8639493143759
 30
0.0
 42
0.1662127852120724
  0
VERTEX
  5
278
  8
DEFAULT
 10
-298.2313177380888
 20
-194.7051919073923
 30
0.0
 42
0.2404461653497964
  0
VERTEX
  5
279
  8
DEFAULT
 10
-297.0777681787637
 20
-195.3002923484911
 30
0.0
 42
0.2413239634427008
  0
VERTEX
  5
27A
  8
DEFAULT
 10
-295.9902873585065
 20
-194.7538992704355
 30
0.0
 42
0.16274493749218
  0
VERTEX
  5
27B
  8
DEFAULT
 10
-295.5567422826965
 20
-192.9613640404623
 30
0.0
 42
0.1661976731381861
  0
VERTEX
  5
27C
  8
DEFAULT
 10
-296.0037906509702
 20
-191.2344162310268
 30
0.0
 42
0.2412377667960709
  0
VERTEX
  5
27D
  8
DEFAULT
 10
-297.1105609471177
 20
-190.6706627188615
 30
0.0
 42
0.2367422129321594
  0
VERTEX
  5
27E
  8
DEFAULT
 10
-298.2515722058268
 20
-191.2242892326365
 30
0.0
 42
0.1723447809988827
  0
SEQEND
  5
27F
  8
DEFAULT
  0
POLYLINE
  5
280
  8
DEFAULT
 66
     1
 10
0.0
 20
0.0
 30
0.0
 70
     1
  0
VERTEX
  5
281
  8
DEFAULT
 10
-292.1616805543015
 20
-188.3249837065158
 30
0.0
  0
VERTEX
  5
282
  8
DEFAULT
 10
-292.1616805543015
 20
-186.6583170398491
 30
0.0
  0
VERTEX
  5
283
  8
DEFAULT
 10
-290.2481003073879
 20
-186.6583170398491
 30
0.0
  0
VERTEX
  5
284
  8
DEFAULT
 10
-290.2481003073879
 20
-188.3249837065158
 30
0.0
  0
SEQEND
  5
285
  8
DEFAULT
  0
POLYLINE
  5
286
  8
DEFAULT
 66
     1
 10
0.0
 20
0.0
 30
0.0
 70
     1
  0
VERTEX
  5
287
  8
DEFAULT
 10
-292.1616805543015
 20
-196.5965886447874
 30
0.0
  0
VERTEX
  5
288
  8
DEFAULT
 10
-292.1616805543015
 20
-189.3743664225651
 30
0.0
  0
VERTEX
  5
289
  8
DEFAULT
 10
-290.2481003073879
 20
-189.3743664225651
 30
0.0
  0
VERTEX
  5
28A
  8
DEFAULT
 10
-290.2481003073879
 20
-196.5965886447874
 30
0.0
  0
SEQEND
  5
28B
  8
DEFAULT
  0
POLYLINE
  5
28C
  8
DEFAULT
 66
     1
 10
0.0
 20
0.0
 30
0.0
 70
     1
  0
VERTEX
  5
28D
  8
DEFAULT
 10
-284.1369891962768
 20
-194.3126380275034
 30
0.0
  0
VERTEX
  5
28E
  8
DEFAULT
 10
-282.2234089493632
 20
-194.5595516077503
 30
0.0
 42
-0.1601948643917727
  0
VERTEX
  5
28F
  8
DEFAULT
 10
-283.3866032466333
 20
-196.2136795028437
 30
0.0
 42
-0.1590209405814103
  0
VERTEX
  5
290
  8
DEFAULT
 10
-285.3763787600477
 20
-196.7817738299725
 30
0.0
 42
-0.2510606897924061
  0
VERTEX
  5
291
  8
DEFAULT
 10
-288.1734469556307
 20
-195.543347845177
 30
0.0
 42
-0.1603231689598241
  0
VERTEX
  5
292
  8
DEFAULT
 10
-288.8900756160299
 20
-193.0404538115487
 30
0.0
 42
-0.1928988919450934
  0
VERTEX
  5
293
  8
DEFAULT
 10
-287.9453415327438
 20
-190.2115573685021
 30
0.0
 42
-0.21869571104993
  0
VERTEX
  5
294
  8
DEFAULT
 10
-285.5567422826965
 20
-189.18918123738
 30
0.0
 42
-0.2248762650829958
  0
VERTEX
  5
295
  8
DEFAULT
 10
-282.9969424584579
 20
-190.2525490353806
 30
0.0
 42
-0.1866850592647357
  0
VERTEX
  5
296
  8
DEFAULT
 10
-282.0999521592397
 20
-193.5101688917009
 30
0.0
  0
VERTEX
  5
297
  8
DEFAULT
 10
-286.9764953691163
 20
-193.5101688917009
 30
0.0
 42
0.1907233177561346
  0
VERTEX
  5
298
  8
DEFAULT
 10
-286.5043689867384
 20
-194.8291309579609
 30
0.0
 42
0.2135192120774742
  0
VERTEX
  5
299
  8
DEFAULT
 10
-285.3792723227185
 20
-195.3002923484911
 30
0.0
 42
0.1657236937101468
  0
VERTEX
  5
29A
  8
DEFAULT
 10
-284.6091146367397
 20
-195.0663993293053
 30
0.0
 42
0.158994851462888
  0
SEQEND
  5
29B
  8
DEFAULT
  0
POLYLINE
  5
29C
  8
DEFAULT
 66
     1
 10
0.0
 20
0.0
 30
0.0
 70
     1
  0
VERTEX
  5
29D
  8
DEFAULT
 10
-284.0135324061533
 20
-192.3373293855281
 30
0.0
 42
0.1931771868552333
  0
VERTEX
  5
29E
  8
DEFAULT
 10
-284.4528646073049
 20
-191.0955275776166
 30
0.0
 42
0.2094545272841375
  0
VERTEX
  5
29F
  8
DEFAULT
 10
-285.4709008653783
 20
-190.6706627188615
 30
0.0
 42
0.2175151257022206
  0
VERTEX
  5
2A0
  8
DEFAULT
 10
-286.5308933112206
 20
-191.1191573975131
 30
0.0
 42
0.1974850402976353
  0
VERTEX
  5
2A1
  8
DEFAULT
 10
-286.9427371379572
 20
-192.3373293855281
 30
0.0
  0
SEQEND
  5
2A2
  8
DEFAULT
  0
POLYLINE
  5
2A3
  8
DEFAULT
 66
     1
 10
0.0
 20
0.0
 30
0.0
 70
     1
  0
VERTEX
  5
2A4
  8
DEFAULT
 10
-274.3839027765237
 20
-191.4731318546639
 30
0.0
  0
VERTEX
  5
2A5
  8
DEFAULT
 10
-276.2974830234373
 20
-191.7817738299726
 30
0.0
 42
0.1809968098174889
  0
VERTEX
  5
2A6
  8
DEFAULT
 10
-276.7247587134606
 20
-190.9498868070172
 30
0.0
 42
0.1804760167669897
  0
VERTEX
  5
2A7
  8
DEFAULT
 10
-277.5889567152823
 20
-190.6706627188614
 30
0.0
 42
0.232967483467109
  0
VERTEX
  5
2A8
  8
DEFAULT
 10
-278.7164642105703
 20
-191.1722055755199
 30
0.0
 42
0.1695179555120482
  0
VERTEX
  5
2A9
  8
DEFAULT
 10
-279.1369891962768
 20
-192.8504460219122
 30
0.0
 42
0.1610966817174763
  0
VERTEX
  5
2AA
  8
DEFAULT
 10
-278.7063367412226
 20
-194.6989225216056
 30
0.0
 42
0.2405540491094687
  0
VERTEX
  5
2AB
  8
DEFAULT
 10
-277.5503758796718
 20
-195.2385639534294
 30
0.0
 42
0.1883458441868633
  0
VERTEX
  5
2AC
  8
DEFAULT
 10
-276.6625480579538
 20
-194.932815069834
 30
0.0
 42
0.1622604489946999
  0
VERTEX
  5
2AD
  8
DEFAULT
 10
-276.1740262333138
 20
-193.8805392620713
 30
0.0
  0
VERTEX
  5
2AE
  8
DEFAULT
 10
-274.2604459864002
 20
-194.1274528423182
 30
0.0
 42
-0.1724509721436165
  0
VERTEX
  5
2AF
  8
DEFAULT
 10
-275.3783082727857
 20
-196.1114417013484
 30
0.0
 42
-0.1746967243539354
  0
VERTEX
  5
2B0
  8
DEFAULT
 10
-277.5947428987089
 20
-196.7817738299726
 30
0.0
 42
-0.2163976905724238
  0
VERTEX
  5
2B1
  8
DEFAULT
 10
-280.1121047456911
 20
-195.7762758725151
 30
0.0
 42
-0.194387056632098
  0
VERTEX
  5
2B2
  8
DEFAULT
 10
-281.0505694431903
 20
-192.9922287089506
 30
0.0
 42
-0.1945054615972589
  0
VERTEX
  5
2B3
  8
DEFAULT
 10
-280.1125870061362
 20
-190.191302900764
 30
0.0
 42
-0.2157801631579996
  0
VERTEX
  5
2B4
  8
DEFAULT
 10
-277.5754534228186
 20
-189.18918123738
 30
0.0
 42
-0.1599423076958124
  0
VERTEX
  5
2B5
  8
DEFAULT
 10
-275.4940488957871
 20
-189.7534170099904
 30
0.0
 42
-0.1682635697125871
  0
SEQEND
  5
2B6
  8
DEFAULT
  0
POLYLINE
  5
2B7
  8
DEFAULT
 66
     1
 10
0.0
 20
0.0
 30
0.0
 70
     1
  0
VERTEX
  5
2B8
  8
DEFAULT
 10
-268.7048904308447
 20
-194.3126380275034
 30
0.0
  0
VERTEX
  5
2B9
  8
DEFAULT
 10
-266.7913101839311
 20
-194.5595516077503
 30
0.0
 42
-0.160194864391776
  0
VERTEX
  5
2BA
  8
DEFAULT
 10
-267.9545044812013
 20
-196.2136795028436
 30
0.0
 42
-0.1590209405814217
  0
VERTEX
  5
2BB
  8
DEFAULT
 10
-269.9442799946156
 20
-196.7817738299725
 30
0.0
 42
-0.2510606897924061
  0
VERTEX
  5
2BC
  8
DEFAULT
 10
-272.7413481901986
 20
-195.543347845177
 30
0.0
 42
-0.1603231689598241
  0
VERTEX
  5
2BD
  8
DEFAULT
 10
-273.4579768505978
 20
-193.0404538115487
 30
0.0
 42
-0.1928988919450934
  0
VERTEX
  5
2BE
  8
DEFAULT
 10
-272.5132427673117
 20
-190.2115573685021
 30
0.0
 42
-0.2186957110499437
  0
VERTEX
  5
2BF
  8
DEFAULT
 10
-270.1246435172644
 20
-189.18918123738
 30
0.0
 42
-0.2248762650829958
  0
VERTEX
  5
2C0
  8
DEFAULT
 10
-267.5648436930258
 20
-190.2525490353807
 30
0.0
 42
-0.1866850592647329
  0
VERTEX
  5
2C1
  8
DEFAULT
 10
-266.6678533938076
 20
-193.5101688917009
 30
0.0
  0
VERTEX
  5
2C2
  8
DEFAULT
 10
-271.5443966036842
 20
-193.5101688917009
 30
0.0
 42
0.1907233177561839
  0
VERTEX
  5
2C3
  8
DEFAULT
 10
-271.0722702213064
 20
-194.829130957961
 30
0.0
 42
0.2135192120774473
  0
VERTEX
  5
2C4
  8
DEFAULT
 10
-269.9471735572864
 20
-195.3002923484911
 30
0.0
 42
0.1657236937101772
  0
VERTEX
  5
2C5
  8
DEFAULT
 10
-269.1770158713076
 20
-195.0663993293052
 30
0.0
 42
0.1589948514629261
  0
SEQEND
  5
2C6
  8
DEFAULT
  0
POLYLINE
  5
2C7
  8
DEFAULT
 66
     1
 10
0.0
 20
0.0
 30
0.0
 70
     1
  0
VERTEX
  5
2C8
  8
DEFAULT
 10
-268.5814336407212
 20
-192.3373293855281
 30
0.0
 42
0.19317718685524
  0
VERTEX
  5
2C9
  8
DEFAULT
 10
-269.0207658418728
 20
-191.0955275776166
 30
0.0
 42
0.2094545272841375
  0
VERTEX
  5
2CA
  8
DEFAULT
 10
-270.0388020999462
 20
-190.6706627188615
 30
0.0
 42
0.2175151257022206
  0
VERTEX
  5
2CB
  8
DEFAULT
 10
-271.0987945457885
 20
-191.1191573975131
 30
0.0
 42
0.1974850402976639
  0
VERTEX
  5
2CC
  8
DEFAULT
 10
-271.5106383725251
 20
-192.3373293855281
 30
0.0
  0
SEQEND
  5
2CD
  8
DEFAULT
  0
POLYLINE
  5
2CE
  8
DEFAULT
 66
     1
 10
0.0
 20
0.0
 30
0.0
 70
     1
  0
VERTEX
  5
2CF
  8
DEFAULT
 10
-268.5814336407212
 20
-453.1198787517598
 30
0.0
 42
0.1931771868553169
  0
VERTEX
  5
2D0
  8
DEFAULT
 10
-269.0207658418728
 20
-451.8780769438483
 30
0.0
 42
0.2094545272841029
  0
VERTEX
  5
2D1
  8
DEFAULT
 10
-270.0388020999462
 20
-451.4532120850931
 30
0.0
 42
0.217515125702221
  0
VERTEX
  5
2D2
  8
DEFAULT
 10
-271.0987945457885
 20
-451.9017067637448
 30
0.0
 42
0.1974850402976437
  0
VERTEX
  5
2D3
  8
DEFAULT
 10
-271.5106383725251
 20
-453.1198787517598
 30
0.0
  0
SEQEND
  5
2D4
  8
DEFAULT
  0
POLYLINE
  5
2D5
  8
DEFAULT
 66
     1
 10
0.0
 20
0.0
 30
0.0
 70
     1
  0
VERTEX
  5
2D6
  8
DEFAULT
 10
-268.7048904308447
 20
-455.0951873937352
 30
0.0
  0
VERTEX
  5
2D7
  8
DEFAULT
 10
-266.791310183931
 20
-455.342100973982
 30
0.0
 42
-0.1601948643917815
  0
VERTEX
  5
2D8
  8
DEFAULT
 10
-267.9545044812012
 20
-456.9962288690754
 30
0.0
 42
-0.1590209405814541
  0
VERTEX
  5
2D9
  8
DEFAULT
 10
-269.9442799946156
 20
-457.5643231962043
 30
0.0
 42
-0.2510606897923987
  0
VERTEX
  5
2DA
  8
DEFAULT
 10
-272.7413481901986
 20
-456.3258972114087
 30
0.0
 42
-0.1603231689598161
  0
VERTEX
  5
2DB
  8
DEFAULT
 10
-273.4579768505978
 20
-453.8230031777804
 30
0.0
 42
-0.1928988919450989
  0
VERTEX
  5
2DC
  8
DEFAULT
 10
-272.5132427673117
 20
-450.9941067347338
 30
0.0
 42
-0.2186957110499749
  0
VERTEX
  5
2DD
  8
DEFAULT
 10
-270.1246435172644
 20
-449.9717306036117
 30
0.0
 42
-0.2248762650830125
  0
VERTEX
  5
2DE
  8
DEFAULT
 10
-267.5648436930258
 20
-451.0350984016123
 30
0.0
 42
-0.1866850592647336
  0
VERTEX
  5
2DF
  8
DEFAULT
 10
-266.6678533938076
 20
-454.2927182579326
 30
0.0
  0
VERTEX
  5
2E0
  8
DEFAULT
 10
-271.5443966036843
 20
-454.2927182579326
 30
0.0
 42
0.1907233177561169
  0
VERTEX
  5
2E1
  8
DEFAULT
 10
-271.0722702213063
 20
-455.6116803241926
 30
0.0
 42
0.2135192120775439
  0
VERTEX
  5
2E2
  8
DEFAULT
 10
-269.9471735572864
 20
-456.0828417147228
 30
0.0
 42
0.1657236937100693
  0
VERTEX
  5
2E3
  8
DEFAULT
 10
-269.1770158713077
 20
-455.8489486955369
 30
0.0
 42
0.1589948514630124
  0
SEQEND
  5
2E4
  8
DEFAULT
  0
POLYLINE
  5
2E5
  8
DEFAULT
 66
     1
 10
0.0
 20
0.0
 30
0.0
 70
     1
  0
VERTEX
  5
2E6
  8
DEFAULT
 10
-274.3839027765237
 20
-452.2556812208956
 30
0.0
  0
VERTEX
  5
2E7
  8
DEFAULT
 10
-276.2974830234373
 20
-452.5643231962043
 30
0.0
 42
0.1809968098175304
  0
VERTEX
  5
2E8
  8
DEFAULT
 10
-276.7247587134606
 20
-451.7324361732489
 30
0.0
 42
0.1804760167669559
  0
VERTEX
  5
2E9
  8
DEFAULT
 10
-277.5889567152823
 20
-451.4532120850931
 30
0.0
 42
0.2329674834671422
  0
VERTEX
  5
2EA
  8
DEFAULT
 10
-278.7164642105703
 20
-451.9547549417517
 30
0.0
 42
0.1695179555120099
  0
VERTEX
  5
2EB
  8
DEFAULT
 10
-279.1369891962767
 20
-453.6329953881439
 30
0.0
 42
0.1610966817174914
  0
VERTEX
  5
2EC
  8
DEFAULT
 10
-278.7063367412226
 20
-455.4814718878373
 30
0.0
 42
0.2405540491094105
  0
VERTEX
  5
2ED
  8
DEFAULT
 10
-277.5503758796718
 20
-456.021113319661
 30
0.0
 42
0.1883458441868709
  0
VERTEX
  5
2EE
  8
DEFAULT
 10
-276.6625480579538
 20
-455.7153644360658
 30
0.0
 42
0.1622604489947153
  0
VERTEX
  5
2EF
  8
DEFAULT
 10
-276.1740262333138
 20
-454.6630886283031
 30
0.0
  0
VERTEX
  5
2F0
  8
DEFAULT
 10
-274.2604459864002
 20
-454.9100022085499
 30
0.0
 42
-0.1724509721435897
  0
VERTEX
  5
2F1
  8
DEFAULT
 10
-275.3783082727857
 20
-456.8939910675801
 30
0.0
 42
-0.1746967243539014
  0
VERTEX
  5
2F2
  8
DEFAULT
 10
-277.5947428987089
 20
-457.5643231962044
 30
0.0
 42
-0.2163976905724063
  0
VERTEX
  5
2F3
  8
DEFAULT
 10
-280.1121047456911
 20
-456.5588252387468
 30
0.0
 42
-0.1943870566320891
  0
VERTEX
  5
2F4
  8
DEFAULT
 10
-281.0505694431903
 20
-453.7747780751823
 30
0.0
 42
-0.1945054615972646
  0
VERTEX
  5
2F5
  8
DEFAULT
 10
-280.1125870061362
 20
-450.9738522669958
 30
0.0
 42
-0.2157801631579672
  0
VERTEX
  5
2F6
  8
DEFAULT
 10
-277.5754534228186
 20
-449.9717306036117
 30
0.0
 42
-0.1599423076958162
  0
VERTEX
  5
2F7
  8
DEFAULT
 10
-275.494048895787
 20
-450.5359663762221
 30
0.0
 42
-0.1682635697125824
  0
SEQEND
  5
2F8
  8
DEFAULT
  0
POLYLINE
  5
2F9
  8
DEFAULT
 66
     1
 10
0.0
 20
0.0
 30
0.0
 70
     1
  0
VERTEX
  5
2FA
  8
DEFAULT
 10
-284.0135324061533
 20
-453.1198787517598
 30
0.0
 42
0.1931771868552771
  0
VERTEX
  5
2FB
  8
DEFAULT
 10
-284.4528646073049
 20
-451.8780769438483
 30
0.0
 42
0.2094545272841029
  0
VERTEX
  5
2FC
  8
DEFAULT
 10
-285.4709008653783
 20
-451.4532120850931
 30
0.0
 42
0.2175151257022867
  0
VERTEX
  5
2FD
  8
DEFAULT
 10
-286.5308933112206
 20
-451.9017067637448
 30
0.0
 42
0.19748504029762
  0
VERTEX
  5
2FE
  8
DEFAULT
 10
-286.9427371379572
 20
-453.1198787517598
 30
0.0
  0
SEQEND
  5
2FF
  8
DEFAULT
  0
POLYLINE
  5
300
  8
DEFAULT
 66
     1
 10
0.0
 20
0.0
 30
0.0
 70
     1
  0
VERTEX
  5
301
  8
DEFAULT
 10
-284.1369891962768
 20
-455.0951873937352
 30
0.0
  0
VERTEX
  5
302
  8
DEFAULT
 10
-282.2234089493632
 20
-455.342100973982
 30
0.0
 42
-0.1601948643917633
  0
VERTEX
  5
303
  8
DEFAULT
 10
-283.3866032466334
 20
-456.9962288690754
 30
0.0
 42
-0.1590209405814339
  0
VERTEX
  5
304
  8
DEFAULT
 10
-285.3763787600477
 20
-457.5643231962042
 30
0.0
 42
-0.2510606897924226
  0
VERTEX
  5
305
  8
DEFAULT
 10
-288.1734469556307
 20
-456.3258972114087
 30
0.0
 42
-0.1603231689598161
  0
VERTEX
  5
306
  8
DEFAULT
 10
-288.8900756160299
 20
-453.8230031777804
 30
0.0
 42
-0.1928988919450989
  0
VERTEX
  5
307
  8
DEFAULT
 10
-287.9453415327438
 20
-450.9941067347339
 30
0.0
 42
-0.2186957110499587
  0
VERTEX
  5
308
  8
DEFAULT
 10
-285.5567422826965
 20
-449.9717306036116
 30
0.0
 42
-0.2248762650829826
  0
VERTEX
  5
309
  8
DEFAULT
 10
-282.9969424584579
 20
-451.0350984016124
 30
0.0
 42
-0.1866850592647339
  0
VERTEX
  5
30A
  8
DEFAULT
 10
-282.0999521592397
 20
-454.2927182579326
 30
0.0
  0
VERTEX
  5
30B
  8
DEFAULT
 10
-286.9764953691162
 20
-454.2927182579326
 30
0.0
 42
0.1907233177561411
  0
VERTEX
  5
30C
  8
DEFAULT
 10
-286.5043689867384
 20
-455.6116803241927
 30
0.0
 42
0.2135192120775261
  0
VERTEX
  5
30D
  8
DEFAULT
 10
-285.3792723227185
 20
-456.0828417147228
 30
0.0
 42
0.1657236937101094
  0
VERTEX
  5
30E
  8
DEFAULT
 10
-284.6091146367397
 20
-455.8489486955369
 30
0.0
 42
0.1589948514628942
  0
SEQEND
  5
30F
  8
DEFAULT
  0
POLYLINE
  5
310
  8
DEFAULT
 66
     1
 10
0.0
 20
0.0
 30
0.0
 70
     1
  0
VERTEX
  5
311
  8
DEFAULT
 10
-292.1616805543015
 20
-457.3791380110191
 30
0.0
  0
VERTEX
  5
312
  8
DEFAULT
 10
-292.1616805543015
 20
-450.1569157887968
 30
0.0
  0
VERTEX
  5
313
  8
DEFAULT
 10
-290.2481003073879
 20
-450.1569157887968
 30
0.0
  0
VERTEX
  5
314
  8
DEFAULT
 10
-290.2481003073879
 20
-457.3791380110191
 30
0.0
  0
SEQEND
  5
315
  8
DEFAULT
  0
POLYLINE
  5
316
  8
DEFAULT
 66
     1
 10
0.0
 20
0.0
 30
0.0
 70
     1
  0
VERTEX
  5
317
  8
DEFAULT
 10
-292.1616805543015
 20
-449.1075330727475
 30
0.0
  0
VERTEX
  5
318
  8
DEFAULT
 10
-292.1616805543015
 20
-447.4408664060808
 30
0.0
  0
VERTEX
  5
319
  8
DEFAULT
 10
-290.2481003073879
 20
-447.4408664060808
 30
0.0
  0
VERTEX
  5
31A
  8
DEFAULT
 10
-290.2481003073879
 20
-449.1075330727475
 30
0.0
  0
SEQEND
  5
31B
  8
DEFAULT
  0
POLYLINE
  5
31C
  8
DEFAULT
 66
     1
 10
0.0
 20
0.0
 30
0.0
 70
     1
  0
VERTEX
  5
31D
  8
DEFAULT
 10
-298.7048904308447
 20
-453.6464986806076
 30
0.0
 42
0.1662127852120766
  0
VERTEX
  5
31E
  8
DEFAULT
 10
-298.2313177380888
 20
-455.487741273624
 30
0.0
 42
0.240446165349756
  0
VERTEX
  5
31F
  8
DEFAULT
 10
-297.0777681787637
 20
-456.0828417147227
 30
0.0
 42
0.2413239634426342
  0
VERTEX
  5
320
  8
DEFAULT
 10
-295.9902873585065
 20
-455.5364486366673
 30
0.0
 42
0.1627449374921541
  0
VERTEX
  5
321
  8
DEFAULT
 10
-295.5567422826965
 20
-453.743913406694
 30
0.0
 42
0.166197673138234
  0
VERTEX
  5
322
  8
DEFAULT
 10
-296.0037906509702
 20
-452.0169655972585
 30
0.0
 42
0.2412377667960013
  0
VERTEX
  5
323
  8
DEFAULT
 10
-297.1105609471177
 20
-451.4532120850931
 30
0.0
 42
0.2367422129321384
  0
VERTEX
  5
324
  8
DEFAULT
 10
-298.2515722058268
 20
-452.0068385988682
 30
0.0
 42
0.1723447809988831
  0
SEQEND
  5
325
  8
DEFAULT
  0
POLYLINE
  5
326
  8
DEFAULT
 66
     1
 10
0.0
 20
0.0
 30
0.0
 70
     1
  0
VERTEX
  5
327
  8
DEFAULT
 10
-300.6184706777582
 20
-450.1569157887968
 30
0.0
  0
VERTEX
  5
328
  8
DEFAULT
 10
-298.8283472209681
 20
-450.1569157887968
 30
0.0
  0
VERTEX
  5
329
  8
DEFAULT
 10
-298.8283472209681
 20
-451.2101556464924
 30
0.0
 42
-0.1189653659007686
  0
VERTEX
  5
32A
  8
DEFAULT
 10
-297.9038676054201
 20
-450.3208815143964
 30
0.0
 42
-0.1382105598910705
  0
VERTEX
  5
32B
  8
DEFAULT
 10
-296.6109466612823
 20
-449.9717306036117
 30
0.0
 42
-0.2273648758850714
  0
VERTEX
  5
32C
  8
DEFAULT
 10
-294.5073595666471
 20
-450.9637247976481
 30
0.0
 42
-0.1838682188936092
  0
VERTEX
  5
32D
  8
DEFAULT
 10
-293.643162035783
 20
-453.7265529725843
 30
0.0
 42
-0.182365664530002
  0
VERTEX
  5
32E
  8
DEFAULT
 10
-294.5145930023667
 20
-456.5554494156308
 30
0.0
 42
-0.2285594541574918
  0
VERTEX
  5
32F
  8
DEFAULT
 10
-296.6263789955265
 20
-457.5643231962042
 30
0.0
 42
-0.1163198006807699
  0
VERTEX
  5
330
  8
DEFAULT
 10
-297.6960166502713
 20
-457.3280188747927
 30
0.0
 42
-0.0904152380777643
  0
VERTEX
  5
331
  8
DEFAULT
 10
-298.7048904308447
 20
-456.5178331009107
 30
0.0
  0
VERTEX
  5
332
  8
DEFAULT
 10
-298.7048904308447
 20
-460.1569157887968
 30
0.0
  0
VERTEX
  5
333
  8
DEFAULT
 10
-300.6184706777582
 20
-460.1569157887968
 30
0.0
  0
SEQEND
  5
334
  8
DEFAULT
  0
POLYLINE
  5
335
  8
DEFAULT
 66
     1
 10
0.0
 20
0.0
 30
0.0
 70
     1
  0
VERTEX
  5
336
  8
DEFAULT
 10
-307.8406928999805
 20
-453.1198787517598
 30
0.0
 42
0.1931771868553231
  0
VERTEX
  5
337
  8
DEFAULT
 10
-308.2800251011321
 20
-451.8780769438483
 30
0.0
 42
0.2094545272840936
  0
VERTEX
  5
338
  8
DEFAULT
 10
-309.2980613592055
 20
-451.4532120850932
 30
0.0
 42
0.2175151257023618
  0
VERTEX
  5
339
  8
DEFAULT
 10
-310.3580538050477
 20
-451.9017067637448
 30
0.0
 42
0.1974850402976221
  0
VERTEX
  5
33A
  8
DEFAULT
 10
-310.7698976317844
 20
-453.1198787517598
 30
0.0
  0
SEQEND
  5
33B
  8
DEFAULT
  0
POLYLINE
  5
33C
  8
DEFAULT
 66
     1
 10
0.0
 20
0.0
 30
0.0
 70
     1
  0
VERTEX
  5
33D
  8
DEFAULT
 10
-307.9641496901039
 20
-455.0951873937352
 30
0.0
  0
VERTEX
  5
33E
  8
DEFAULT
 10
-306.0505694431903
 20
-455.342100973982
 30
0.0
 42
-0.1601948643917611
  0
VERTEX
  5
33F
  8
DEFAULT
 10
-307.2137637404606
 20
-456.9962288690755
 30
0.0
 42
-0.1590209405814203
  0
VERTEX
  5
340
  8
DEFAULT
 10
-309.2035392538749
 20
-457.5643231962042
 30
0.0
 42
-0.2510606897924128
  0
VERTEX
  5
341
  8
DEFAULT
 10
-312.0006074494578
 20
-456.3258972114087
 30
0.0
 42
-0.1603231689598161
  0
VERTEX
  5
342
  8
DEFAULT
 10
-312.717236109857
 20
-453.8230031777804
 30
0.0
 42
-0.1928988919450689
  0
VERTEX
  5
343
  8
DEFAULT
 10
-311.772502026571
 20
-450.9941067347338
 30
0.0
 42
-0.2186957110499879
  0
VERTEX
  5
344
  8
DEFAULT
 10
-309.3839027765237
 20
-449.9717306036117
 30
0.0
 42
-0.2248762650829799
  0
VERTEX
  5
345
  8
DEFAULT
 10
-306.824102952285
 20
-451.0350984016123
 30
0.0
 42
-0.1866850592647227
  0
VERTEX
  5
346
  8
DEFAULT
 10
-305.927112653067
 20
-454.2927182579326
 30
0.0
  0
VERTEX
  5
347
  8
DEFAULT
 10
-310.8036558629435
 20
-454.2927182579326
 30
0.0
 42
0.190723317756135
  0
VERTEX
  5
348
  8
DEFAULT
 10
-310.3315294805656
 20
-455.6116803241925
 30
0.0
 42
0.2135192120775229
  0
VERTEX
  5
349
  8
DEFAULT
 10
-309.2064328165457
 20
-456.0828417147229
 30
0.0
 42
0.1657236937100541
  0
VERTEX
  5
34A
  8
DEFAULT
 10
-308.4362751305669
 20
-455.8489486955369
 30
0.0
 42
0.1589948514629633
  0
SEQEND
  5
34B
  8
DEFAULT
  0
POLYLINE
  5
34C
  8
DEFAULT
 66
     1
 10
0.0
 20
0.0
 30
0.0
 70
     1
  0
VERTEX
  5
34D
  8
DEFAULT
 10
-314.0752608012151
 20
-457.3791380110191
 30
0.0
  0
VERTEX
  5
34E
  8
DEFAULT
 10
-315.9888410481286
 20
-457.3791380110191
 30
0.0
  0
VERTEX
  5
34F
  8
DEFAULT
 10
-315.9888410481286
 20
-453.6918302205349
 30
0.0
 42
0.0659043403441851
  0
VERTEX
  5
350
  8
DEFAULT
 10
-316.1094042755813
 20
-452.177555499742
 30
0.0
 42
0.1600130695765945
  0
VERTEX
  5
351
  8
DEFAULT
 10
-316.50099363458
 20
-451.6437016642174
 30
0.0
 42
0.1575149176298198
  0
VERTEX
  5
352
  8
DEFAULT
 10
-317.1529998662891
 20
-451.4532120850931
 30
0.0
 42
0.1576987046345073
  0
VERTEX
  5
353
  8
DEFAULT
 10
-318.0292534373241
 20
-451.7252027375293
 30
0.0
 42
0.168437182261672
  0
VERTEX
  5
354
  8
DEFAULT
 10
-318.5611787020258
 20
-452.4461708000198
 30
0.0
 42
0.0659809918576541
  0
VERTEX
  5
355
  8
DEFAULT
 10
-318.7048904308447
 20
-454.1065685518572
 30
0.0
  0
VERTEX
  5
356
  8
DEFAULT
 10
-318.7048904308447
 20
-457.3791380110191
 30
0.0
  0
VERTEX
  5
357
  8
DEFAULT
 10
-320.6184706777582
 20
-457.3791380110191
 30
0.0
  0
VERTEX
  5
358
  8
DEFAULT
 10
-320.6184706777582
 20
-450.1569157887968
 30
0.0
  0
VERTEX
  5
359
  8
DEFAULT
 10
-318.8283472209681
 20
-450.1569157887968
 30
0.0
  0
VERTEX
  5
35A
  8
DEFAULT
 10
-318.8283472209682
 20
-451.2101556464924
 30
0.0
 42
-0.2486296121988669
  0
VERTEX
  5
35B
  8
DEFAULT
 10
-316.4749520415004
 20
-449.9717306036117
 30
0.0
 42
-0.1053164015608644
  0
VERTEX
  5
35C
  8
DEFAULT
 10
-315.3324944724133
 20
-450.2003182869437
 30
0.0
 42
-0.1292191717088374
  0
VERTEX
  5
35D
  8
DEFAULT
 10
-314.5493152834585
 20
-450.7833622169142
 30
0.0
 42
-0.1054932374262787
  0
VERTEX
  5
35E
  8
DEFAULT
 10
-314.1794271735333
 20
-451.5882426549423
 30
0.0
 42
-0.0533641385176606
  0
VERTEX
  5
35F
  8
DEFAULT
 10
-314.0752608012151
 20
-452.8777868340493
 30
0.0
  0
SEQEND
  5
360
  8
DEFAULT
  0
POLYLINE
  5
361
  8
DEFAULT
 66
     1
 10
0.0
 20
0.0
 30
0.0
 70
     1
  0
VERTEX
  5
362
  8
DEFAULT
 10
-329.6925447518323
 20
-452.4032500913606
 30
0.0
 42
0.1838510025519673
  0
VERTEX
  5
363
  8
DEFAULT
 10
-328.9223861239386
 20
-454.9640144364895
 30
0.0
 42
0.2254577132434741
  0
VERTEX
  5
364
  8
DEFAULT
 10
-326.9668501602137
 20
-455.8359281344759
 30
0.0
 42
0.2262475935245986
  0
VERTEX
  5
365
  8
DEFAULT
 10
-325.0204766739888
 20
-454.9707660827214
 30
0.0
 42
0.1821100867906481
  0
VERTEX
  5
366
  8
DEFAULT
 10
-324.2604459864002
 20
-452.3762444483483
 30
0.0
 42
0.1818651488237537
  0
VERTEX
  5
367
  8
DEFAULT
 10
-325.0007044666958
 20
-449.825125312122
 30
0.0
 42
0.2256131841521845
  0
VERTEX
  5
368
  8
DEFAULT
 10
-326.9668501602137
 20
-448.984076282624
 30
0.0
 42
0.2254805064308643
  0
VERTEX
  5
369
  8
DEFAULT
 10
-328.942158802189
 20
-449.8352527814697
 30
0.0
 42
0.1823590794119406
  0
SEQEND
  5
36A
  8
DEFAULT
  0
POLYLINE
  5
36B
  8
DEFAULT
 66
     1
 10
0.0
 20
0.0
 30
0.0
 70
     1
  0
VERTEX
  5
36C
  8
DEFAULT
 10
-331.7295817888694
 20
-452.4707656117639
 30
0.0
 42
-0.1018416397943211
  0
VERTEX
  5
36D
  8
DEFAULT
 10
-331.2820506891931
 20
-449.9148238710863
 30
0.0
 42
-0.0880713985140774
  0
VERTEX
  5
36E
  8
DEFAULT
 10
-330.3691453243282
 20
-448.5476367022283
 30
0.0
 42
-0.1028950386778274
  0
VERTEX
  5
36F
  8
DEFAULT
 10
-329.1022664442274
 20
-447.6501636716076
 30
0.0
 42
-0.1024921346879959
  0
VERTEX
  5
370
  8
DEFAULT
 10
-326.989997719665
 20
-447.2556812208956
 30
0.0
 42
-0.2135832424529073
  0
VERTEX
  5
371
  8
DEFAULT
 10
-323.5235628582631
 20
-448.6223861293086
 30
0.0
 42
-0.1971385617085222
  0
VERTEX
  5
372
  8
DEFAULT
 10
-322.2234089493631
 20
-452.4235050300561
 30
0.0
 42
-0.1964469629781015
  0
VERTEX
  5
373
  8
DEFAULT
 10
-323.5134358598727
 20
-456.2009936399499
 30
0.0
 42
-0.2143460913173899
  0
VERTEX
  5
374
  8
DEFAULT
 10
-326.9629920766527
 20
-457.5643231962043
 30
0.0
 42
-0.213414331366131
  0
VERTEX
  5
375
  8
DEFAULT
 10
-330.4395544074023
 20
-456.2077448152242
 30
0.0
 42
-0.1973863237065336
  0
SEQEND
  5
376
  8
DEFAULT
  0
INSERT
  5
377
  8
DEFAULT
  2
*X3
 10
0.0
 20
0.0
 30
0.0
  0
TEXT
  5
378
  8
DEFAULT
  6
CONTINUOUS
 10
-154.0195431548473
 20
200.2208514922488
 30
0.0000000000000878
 40
4.0
  1
Screw hole 2 mm
  0
ENDSEC
  0
EOF
